<svg xmlns="http://www.w3.org/2000/svg" xmlns:xlink="http://www.w3.org/1999/xlink" xmlns:inkscape="http://www.inkscape.org/namespaces/inkscape" version="1.1" width="113" height="249" viewBox="337 108 113.0 249.0">
<defs>
<path id="font_1_1" d=""/>
<clipPath id="clip_2">
<path transform="matrix(1,0,0,-1,0,738)" d="M300 84.297H468.69703V330.127H300Z"/>
</clipPath>
<clipPath id="clip_3">
<path transform="matrix(1,0,0,-1,0,738)" d="M404.433 269.495C405.039 268.101 405.594 266.255 405.65 265.088 405.711 263.783 405.772 254.785 405.819 243.88H415.459C413.505 253.915 411.036 263.332 410.628 264.759 409.978 267.03 407.594 272 406.025 274.589 405.927 274.187 404.872 269.932 404.433 269.495"/>
</clipPath>
<clipPath id="clip_4">
<path transform="matrix(1,0,0,-1,0,738)" d="M400.609 264.213C400.217 263.75 397.441 261.524 396.65 261.838L396.325 261.189C396.325 261.189 396.028 256.772 395.642 251.052V251.047H405.77 405.784C405.744 258.524 405.697 264.084 405.65 265.088 405.594 266.255 405.039 268.101 404.433 269.495 403.352 268.415 402.442 266.381 400.609 264.213"/>
</clipPath>
<clipPath id="clip_5">
<path transform="matrix(1,0,0,-1,0,738)" d="M403.818 143.276C404.523 138.188 405.746 129.608 407.358 124.712 408.089 122.492 409.41 119.337 411.192 114.88 411.727 113.545 412.588 110.901 412.038 107.163 413.838 111.964 414.374 120.693 414.211 122.718 413.951 125.966 412.67 136.81 412.67 140.212 412.67 143.172 414.142 156.684 414.524 161.844Z"/>
</clipPath>
<clipPath id="clip_6">
<path transform="matrix(1,0,0,-1,0,738)" d="M300 84.297H468.69703V330.127H300Z"/>
</clipPath>
<clipPath id="clip_7">
<path transform="matrix(1,0,0,-1,0,738)" d="M393.994 226.268C393.636 220.598 392.536 204.671 392.697 199.274 393.108 185.38 391.39 151.617 391.609 142.547 391.794 134.775 391.293 119.049 389.675 114.297 389.173 112.833 389.022 112.064 388.215 109.521 387.684 107.84 387.701 106.802 387.864 105.906L387.942 106.047C394.942 118.38 395.743 146.796 395.743 155.961 395.743 165.128 395.776 179.88 395.442 192.38 395.108 204.88 394.776 224.214 394.609 234.38L394.574 235.091C394.303 231.034 394.084 227.705 393.994 226.268"/>
</clipPath>
<clipPath id="clip_8">
<path transform="matrix(1,0,0,-1,0,738)" d="M300 84.297H468.69703V330.127H300Z"/>
</clipPath>
<clipPath id="clip_9">
<path transform="matrix(1,0,0,-1,0,738)" d="M408.777 263.745C410.436 260.099 410.937 260.604 411.045 258.564 411.126 256.941 410.245 243.185 409.921 239.363 409.908 239.212 409.893 239.044 409.879 238.88H416.376C414.378 250.579 411.103 263.096 410.628 264.759 410.31 265.878 409.688 267.497 408.953 269.171 408.54 267.884 408.163 265.1 408.777 263.745"/>
</clipPath>
<clipPath id="clip_10">
<path transform="matrix(1,0,0,-1,0,738)" d="M300 84.297H468.69703V330.127H300Z"/>
</clipPath>
<clipPath id="clip_11">
<path transform="matrix(1,0,0,-1,0,738)" d="M403.711 144.095C404.427 139.107 405.877 129.012 407.358 124.712 408.025 122.776 408.661 121.265 409.837 118.339 410.356 118.502 411.058 118.935 411.702 119.537 413.008 120.768 412.757 120.977 413.542 122.437 413.703 122.736 413.92 123.074 414.142 123.462 413.946 125.642 413.509 129.605 413.163 133.242 411.845 135.595 411.482 135.199 411.166 136.413 411.166 136.413 411.65 147.517 412.265 154.254Z"/>
</clipPath>
<clipPath id="clip_12">
<path transform="matrix(1,0,0,-1,0,738)" d="M300 84.297H468.69703V330.127H300Z"/>
</clipPath>
<clipPath id="clip_13">
<path transform="matrix(1,0,0,-1,0,738)" d="M398.109 134.63C397.441 131.291 396.271 125.756 394.62 119.932 394.811 120.003 395.135 120.097 396.025 120.296 397.275 123.547 398.108 125.826 398.359 126.63 398.625 127.484 402.728 139.822 403.46 144.869L400.537 145.786C399.52 141.172 398.619 137.18 398.109 134.63"/>
</clipPath>
<clipPath id="clip_14">
<path transform="matrix(1,0,0,-1,0,738)" d="M300 84.297H468.69703V330.127H300Z"/>
</clipPath>
<clipPath id="clip_15">
<path transform="matrix(1,0,0,-1,0,738)" d="M392.414 119.106C393.341 119.349 394.073 119.715 394.269 119.79 394.416 119.843 394.486 119.881 394.62 119.932 396.271 125.756 397.441 131.291 398.109 134.63 398.254 135.359 398.433 136.208 398.636 137.151L395.028 138.218C394.54 131.995 393.734 125.208 392.414 119.106"/>
</clipPath>
<clipPath id="clip_16">
<path transform="matrix(1,0,0,-1,0,738)" d="M300 84.297H468.69703V330.127H300Z"/>
</clipPath>
<clipPath id="clip_17">
<path transform="matrix(1,0,0,-1,0,738)" d="M397.295 145.677C396.928 144.753 396.233 142.58 395.185 140.332 395.137 139.637 395.083 138.929 395.028 138.218L398.636 137.151C399.59 141.588 401.106 148.199 402.528 155.018L399.761 155.605C398.79 151.1 397.793 146.939 397.295 145.677"/>
</clipPath>
<clipPath id="clip_18">
<path transform="matrix(1,0,0,-1,0,738)" d="M300 84.297H468.69703V330.127H300Z"/>
</clipPath>
<clipPath id="clip_19">
<path transform="matrix(1,0,0,-1,0,738)" d="M300 84.297H468.69703V330.127H300Z"/>
</clipPath>
<clipPath id="clip_20">
<path transform="matrix(1,0,0,-1,0,738)" d="M311 397.297H479.69599V644.751H311Z"/>
</clipPath>
<clipPath id="clip_21">
<path transform="matrix(1,0,0,-1,0,738)" d="M415.433 582.495C416.039 581.101 416.594 579.255 416.65 578.088 416.711 576.783 416.772 567.785 416.819 556.88H426.459C424.505 566.915 422.036 576.332 421.628 577.759 420.978 580.03 418.594 585 417.025 587.589 416.927 587.187 415.872 582.932 415.433 582.495"/>
</clipPath>
<clipPath id="clip_22">
<path transform="matrix(1,0,0,-1,0,738)" d="M411.609 577.213C411.217 576.75 408.441 574.524 407.65 574.838L407.325 574.189C407.325 574.189 407.028 569.772 406.642 564.052V564.047H416.77 416.784C416.744 571.525 416.697 577.084 416.65 578.088 416.594 579.255 416.039 581.101 415.433 582.495 414.352 581.415 413.442 579.381 411.609 577.213"/>
</clipPath>
<clipPath id="clip_23">
<path transform="matrix(1,0,0,-1,0,738)" d="M414.818 456.276C415.523 451.188 416.746 442.608 418.358 437.712 419.089 435.492 420.41 432.337 422.192 427.88 422.727 426.545 423.588 423.901 423.038 420.163 424.838 424.964 425.374 433.693 425.211 435.718 424.951 438.966 423.67 449.81 423.67 453.212 423.67 456.172 425.142 469.685 425.524 474.844Z"/>
</clipPath>
<clipPath id="clip_24">
<path transform="matrix(1,0,0,-1,0,738)" d="M311 397.297H479.69599V644.751H311Z"/>
</clipPath>
<clipPath id="clip_25">
<path transform="matrix(1,0,0,-1,0,738)" d="M404.994 539.268C404.636 533.598 403.536 517.671 403.697 512.274 404.108 498.38 402.39 464.617 402.609 455.547 402.794 447.775 402.293 432.049 400.675 427.297 400.173 425.833 400.022 425.064 399.215 422.521 398.684 420.84 398.701 419.802 398.864 418.906L398.942 419.047C405.942 431.38 406.743 459.796 406.743 468.961 406.743 478.128 406.776 492.88 406.442 505.38 406.108 517.88 405.776 537.214 405.609 547.38L405.574 548.091C405.303 544.034 405.084 540.705 404.994 539.268"/>
</clipPath>
<clipPath id="clip_26">
<path transform="matrix(1,0,0,-1,0,738)" d="M311 397.297H479.69599V644.751H311Z"/>
</clipPath>
<clipPath id="clip_27">
<path transform="matrix(1,0,0,-1,0,738)" d="M419.777 576.745C421.436 573.099 421.937 573.604 422.045 571.564 422.126 569.941 421.245 556.185 420.921 552.363 420.908 552.212 420.893 552.044 420.879 551.88H427.376C425.378 563.579 422.103 576.096 421.628 577.759 421.31 578.878 420.688 580.497 419.953 582.171 419.54 580.884 419.163 578.1 419.777 576.745"/>
</clipPath>
<clipPath id="clip_28">
<path transform="matrix(1,0,0,-1,0,738)" d="M311 397.297H479.69599V644.751H311Z"/>
</clipPath>
<clipPath id="clip_29">
<path transform="matrix(1,0,0,-1,0,738)" d="M414.711 457.095C415.427 452.107 416.877 442.012 418.358 437.712 419.025 435.776 419.661 434.265 420.837 431.339 421.356 431.502 422.058 431.935 422.702 432.537 424.008 433.768 423.757 433.977 424.542 435.437 424.703 435.736 424.92 436.074 425.142 436.462 424.946 438.642 424.509 442.605 424.163 446.242 422.845 448.595 422.482 448.199 422.166 449.413 422.166 449.413 422.65 460.517 423.265 467.254Z"/>
</clipPath>
<clipPath id="clip_30">
<path transform="matrix(1,0,0,-1,0,738)" d="M311 397.297H479.69599V644.751H311Z"/>
</clipPath>
<clipPath id="clip_31">
<path transform="matrix(1,0,0,-1,0,738)" d="M409.109 447.63C408.441 444.291 407.271 438.756 405.62 432.932 405.811 433.003 406.135 433.097 407.025 433.296 408.275 436.547 409.108 438.826 409.359 439.63 409.625 440.484 413.728 452.822 414.46 457.869L411.537 458.786C410.52 454.172 409.619 450.18 409.109 447.63"/>
</clipPath>
<clipPath id="clip_32">
<path transform="matrix(1,0,0,-1,0,738)" d="M311 397.297H479.69599V644.751H311Z"/>
</clipPath>
<clipPath id="clip_33">
<path transform="matrix(1,0,0,-1,0,738)" d="M403.414 432.106C404.341 432.349 405.073 432.715 405.269 432.79 405.416 432.843 405.486 432.881 405.62 432.932 407.271 438.756 408.441 444.291 409.109 447.63 409.254 448.359 409.433 449.208 409.636 450.151L406.028 451.218C405.54 444.995 404.734 438.208 403.414 432.106"/>
</clipPath>
<clipPath id="clip_34">
<path transform="matrix(1,0,0,-1,0,738)" d="M311 397.297H479.69599V644.751H311Z"/>
</clipPath>
<clipPath id="clip_35">
<path transform="matrix(1,0,0,-1,0,738)" d="M408.295 458.677C407.928 457.753 407.233 455.58 406.185 453.332 406.137 452.637 406.083 451.929 406.028 451.218L409.636 450.151C410.59 454.588 412.106 461.199 413.528 468.018L410.761 468.605C409.79 464.1 408.793 459.939 408.295 458.677"/>
</clipPath>
<clipPath id="clip_36">
<path transform="matrix(1,0,0,-1,0,738)" d="M311 397.297H479.69599V644.751H311Z"/>
</clipPath>
<clipPath id="clip_37">
<path transform="matrix(1,0,0,-1,0,738)" d="M311 397.297H479.69599V644.751H311Z"/>
</clipPath>
<path id="font_38_3" d=""/>
<path id="font_40_1" d=""/>
</defs>







<g clip-path="url(#clip_2)">
<path transform="matrix(1,0,0,-1,397.7086,651.1408)" d="M0 0C.664 5.158 1.644 9.961 2.539 13.271 3.62 17.275 6.329 21.764 9.276 22.768 12.232 23.77 12.299 24.84 12.566 27.143 12.69 28.191 12.943 29.363 12.508 29.854 11.987 30.441 10.856 30.311 9.091 30.502 6.915 30.738 4.438 32.486 3.14 32.68 2.906 32.715 2.285 32.209 2.14 32.15 .784 31.619 1.217 32.373 .371 32.857-.475 33.338-2.696 31.924-3.576 31.678-4.457 31.436-6.713 31.469-7.88 31.385-9.043 31.299-9.939 32.055-10.44 30.775-10.946 29.5-11.505 29.82-11.297 28.357-11.082 26.902-10.239 24.424-9.438 23.074-8.643 21.73-8.024 18.914-7.678 17.299-7.327 15.686-7.656 12.715-7.678 10.568-7.69 9.041-8.254 3.842-8.588 .154" fill="#e6e7e8"/>
<path transform="matrix(1,0,0,-1,397.7086,651.1408)" stroke-width=".4" stroke-linecap="round" stroke-linejoin="round" fill="none" stroke="#6d6e71" d="M0 0C.664 5.158 1.644 9.961 2.539 13.271 3.62 17.275 6.329 21.764 9.276 22.768 12.232 23.77 12.299 24.84 12.566 27.143 12.69 28.191 12.943 29.363 12.508 29.854 11.987 30.441 10.856 30.311 9.091 30.502 6.915 30.738 4.438 32.486 3.14 32.68 2.906 32.715 2.285 32.209 2.14 32.15 .784 31.619 1.217 32.373 .371 32.857-.475 33.338-2.696 31.924-3.576 31.678-4.457 31.436-6.713 31.469-7.88 31.385-9.043 31.299-9.939 32.055-10.44 30.775-10.946 29.5-11.505 29.82-11.297 28.357-11.082 26.902-10.239 24.424-9.438 23.074-8.643 21.73-8.024 18.914-7.678 17.299-7.327 15.686-7.656 12.715-7.678 10.568-7.69 9.041-8.254 3.842-8.588 .154"/>
<path transform="matrix(1,0,0,-1,409.9205,498.6364)" d="M0 0C-.642-7.58-2.535-30.899-3.261-36.098-4.215-42.922-3.442-43.897-4.795-51.047-5.727-55.974-7.368-66.85-7.672-70.37-7.975-73.879-11.521-90.891-12.626-93.686-13.733-96.485-14.799-103.834-19.938-104.678-20.951-104.848-20.652-103.694-21.681-103.954-22.705-104.213-23.438-105.135-23.938-106.45-24.436-107.76-25.812-113.168-23.096-117.719-20.388-122.272-16.221-119.793-15.651-119.573-15.084-119.358-11.778-118.157-9.7-118.28-7.62-118.407-7.779-118.208-6.446-119.342-5.106-120.487-3.686-120.809-1.885-120.995-.09-121.182 .47-121.059 1.781-119.827 3.087-118.596 2.836-118.387 3.622-116.926 4.411-115.463 6.573-113.049 4.334-108.268 2.1-103.497 1.637-104.448 1.245-102.95 1.245-102.95 1.931-87.247 2.705-81.858 3.484-76.467 6.521-59.161 7.226-54.949 7.932-50.73 10.284-29.671 10.708-25.708 11.125-21.746 12.734-2.233 13.1 3.839 13.424 9.196 14.547 21.05 15.864 23.492 16.666 24.979 18.858 26.708 20.463 27.767 21.128 28.208 21.854 28.123 22.179 28.268 23.636 28.916 25.166 32.264 25.088 35.1 25.054 36.233 22.713 42.732 22.171 43.928 21.526 45.348 20.037 46.638 19.418 47.001 18.489 47.551 17.522 46.758 16.262 46.518 15.205 46.314 13.875 45.066 12.291 45.465 10.708 45.862 9.358 46.938 8.891 47.569 7.955 48.832 8.404 50.97 6.702 52.265 5.089 53.497-3.816 47.218-5.519 44.058-5.891 43.373-7.199 40.938-7.38 40.337-8.108 37.905-7.587 35.917-6.732 35.558-3.816 34.342-.498 35.477 .557 33.854 1.609 32.237-.202 30.839-.658 30.457-1.113 30.072-1.92 26.085-1.144 24.382 .516 20.735 1.017 21.24 1.124 19.2 1.205 17.578 .324 3.821 0 0" fill="#e6e7e8"/>
<path transform="matrix(1,0,0,-1,409.9205,498.6364)" stroke-width=".4" stroke-linecap="round" stroke-linejoin="round" fill="none" stroke="#6d6e71" d="M0 0C-.642-7.58-2.535-30.899-3.261-36.098-4.215-42.922-3.442-43.897-4.795-51.047-5.727-55.974-7.368-66.85-7.672-70.37-7.975-73.879-11.521-90.891-12.626-93.686-13.733-96.485-14.799-103.834-19.938-104.678-20.951-104.848-20.652-103.694-21.681-103.954-22.705-104.213-23.438-105.135-23.938-106.45-24.436-107.76-25.812-113.168-23.096-117.719-20.388-122.272-16.221-119.793-15.651-119.573-15.084-119.358-11.778-118.157-9.7-118.28-7.62-118.407-7.779-118.208-6.446-119.342-5.106-120.487-3.686-120.809-1.885-120.995-.09-121.182 .47-121.059 1.781-119.827 3.087-118.596 2.836-118.387 3.622-116.926 4.411-115.463 6.573-113.049 4.334-108.268 2.1-103.497 1.637-104.448 1.245-102.95 1.245-102.95 1.931-87.247 2.705-81.858 3.484-76.467 6.521-59.161 7.226-54.949 7.932-50.73 10.284-29.671 10.708-25.708 11.125-21.746 12.734-2.233 13.1 3.839 13.424 9.196 14.547 21.05 15.864 23.492 16.666 24.979 18.858 26.708 20.463 27.767 21.128 28.208 21.854 28.123 22.179 28.268 23.636 28.916 25.166 32.264 25.088 35.1 25.054 36.233 22.713 42.732 22.171 43.928 21.526 45.348 20.037 46.638 19.418 47.001 18.489 47.551 17.522 46.758 16.262 46.518 15.205 46.314 13.875 45.066 12.291 45.465 10.708 45.862 9.358 46.938 8.891 47.569 7.955 48.832 8.404 50.97 6.702 52.265 5.089 53.497-3.816 47.218-5.519 44.058-5.891 43.373-7.199 40.938-7.38 40.337-8.108 37.905-7.587 35.917-6.732 35.558-3.816 34.342-.498 35.477 .557 33.854 1.609 32.237-.202 30.839-.658 30.457-1.113 30.072-1.92 26.085-1.144 24.382 .516 20.735 1.017 21.24 1.124 19.2 1.205 17.578 .324 3.821 0 0Z"/>
<path transform="matrix(1,0,0,-1,430.0777,393.2108)" stroke-width=".5" stroke-linecap="round" stroke-linejoin="round" fill="none" stroke="#000000" d="M0 0C.164-.844 .341-1.676 .522-2.49 2.757-12.537 7.37-18.501 5.173-26.908 5.173-26.908 9.517-40.062 8.663-52.879 7.502-70.323 11.134-93.742 9.46-104.902 4.339-139.027 1.697-155.826-7.803-186.201-8.568-188.65-10.053-195.076-10.053-198.576-10.053-205.369-11.429-216.575-12.246-222.352-14.065-235.172-11.956-245.571-11.077-256.432"/>
<path transform="matrix(1,0,0,-1,376.3395,473.2785)" stroke-width=".5" stroke-linecap="round" stroke-linejoin="round" fill="none" stroke="#000000" d="M0 0C1.157 .148 2.669-3.931 2.727-4.14 3.742-7.711 2.387-13.222 2.252-20.564 2.001-34.265 1.043-50.825 1.79-57.197 3.491-71.746 2.029-84.415 1.365-98.093 1.181-101.974 1.311-106.383 1.311-108.758 1.022-120.041 .987-120.667 1.929-131.864 2.437-137.854 5.453-142.89 5.766-148.854 6.254-158.103 5.776-167.212 4.784-176.534"/>
<path transform="matrix(1,0,0,-1,322.6012,393.2108)" stroke-width=".5" stroke-linecap="round" stroke-linejoin="round" fill="none" stroke="#000000" d="M0 0C-.164-.844-.341-1.676-.522-2.49-2.757-12.537-7.37-18.501-5.173-26.908-5.173-26.908-9.517-40.062-8.663-52.879-7.502-70.323-11.134-93.742-9.46-104.902-4.339-139.027-1.697-155.826 7.803-186.201 8.568-188.65 10.053-195.076 10.053-198.576 10.053-205.369 11.429-216.575 12.246-222.352 14.065-235.172 11.956-245.571 11.077-256.432"/>
<path transform="matrix(1,0,0,-1,376.3395,473.2785)" stroke-width=".5" stroke-linecap="round" stroke-linejoin="round" fill="none" stroke="#000000" d="M0 0C-1.156 .148-2.67-3.931-2.727-4.14-3.742-7.711-2.387-13.222-2.252-20.564-2.001-34.265-1.043-50.825-1.79-57.197-3.491-71.746-2.029-84.415-1.365-98.093-1.181-101.974-1.311-106.383-1.311-108.758-1.022-120.041-.987-120.667-1.929-131.864-2.437-137.854-5.453-142.89-5.766-148.854-6.254-158.103-5.776-167.212-4.784-176.534"/>
<path transform="matrix(1,0,0,-1,384.1051,623.5139)" stroke-width=".4" stroke-linecap="round" stroke-linejoin="round" fill="none" stroke="#000000" d="M0 0C-1.062 1.26-1.451 2.135-2.321 4.746"/>
<path transform="matrix(1,0,0,-1,368.7154,623.5139)" stroke-width=".4" stroke-linecap="round" stroke-linejoin="round" fill="none" stroke="#000000" d="M0 0C1.064 1.26 1.449 2.135 2.321 4.746"/>
<path transform="matrix(1,0,0,-1,380.648,407.3401)" d="M0 0C2.083-.266 2.102-2.113 4.709 1.143 6.746 3.688 6.371 1.452 8.08 1.905 9.66 2.331 10.436 2.377 10.778 3.039 11.223 3.908 11.812 4.155 11.539 5.105 11.104 6.631 8.057 5.946 7.188 5.543 5.537 4.417 4.99 7.576 3.88 8.145Z" fill="#e6e7e8"/>
<path transform="matrix(1,0,0,-1,380.648,407.3401)" stroke-width=".4" stroke-linecap="round" stroke-linejoin="round" fill="none" stroke="#6d6e71" d="M0 0C2.083-.266 2.102-2.113 4.709 1.143 6.746 3.688 6.371 1.452 8.08 1.905 9.66 2.331 10.436 2.377 10.778 3.039 11.223 3.908 11.812 4.155 11.539 5.105 11.104 6.631 8.057 5.946 7.188 5.543 5.537 4.417 4.99 7.576 3.88 8.145L0 0Z"/>
<path transform="matrix(1,0,0,-1,376.0182,412.9646)" d="M0 0C.48 0 1.593-.359 2.211-.073 2.397 .013 3.212 .584 3.24 .736 3.324 1.195 3.629 2.2 4.268 2.132 5.277 2.026 5.86 1.587 6.627 .441 7.825-1.355 10.87 1.681 9.794 3.681L8.752 7.774C9.068 8.983 10.024 9.618 10.024 11.02 10.024 11.92 9.519 12.795 9.578 13.69 9.706 15.601 9.969 15.395 8.99 16.262 8.692 16.53 7.542 17 7.734 15.09 7.887 13.563 7.481 13.221 6.707 12.784 5.689 12.211 5.284 12.755 4.964 13.33 4.646 13.9 3.206 13.038 2.572 12.784 1.933 12.529 1.217 12.747 .068 12.747" fill="#e6e7e8"/>
<path transform="matrix(1,0,0,-1,376.0182,412.9646)" stroke-width=".4" stroke-linecap="round" stroke-linejoin="round" fill="none" stroke="#6d6e71" d="M0 0C.48 0 1.593-.359 2.211-.073 2.397 .013 3.212 .584 3.24 .736 3.324 1.195 3.629 2.2 4.268 2.132 5.277 2.026 5.86 1.587 6.627 .441 7.825-1.355 10.87 1.681 9.794 3.681L8.752 7.774C9.068 8.983 10.024 9.618 10.024 11.02 10.024 11.92 9.519 12.795 9.578 13.69 9.706 15.601 9.969 15.395 8.99 16.262 8.692 16.53 7.542 17 7.734 15.09 7.887 13.563 7.481 13.221 6.707 12.784 5.689 12.211 5.284 12.755 4.964 13.33 4.646 13.9 3.206 13.038 2.572 12.784 1.933 12.529 1.217 12.747 .068 12.747"/>
<path transform="matrix(1,0,0,-1,377.1319,403.1618)" d="M0 0C-.021-.658 .51-4.132 .594-4.965 .674-5.769 1.017-6.544 .655-7.23 .24-8.01 .433-8.92-1.039-8.92" fill="#e6e7e8"/>
<path transform="matrix(1,0,0,-1,377.1319,403.1618)" stroke-width=".4" stroke-linecap="round" stroke-linejoin="round" fill="none" stroke="#6d6e71" d="M0 0C-.021-.658 .51-4.132 .594-4.965 .674-5.769 1.017-6.544 .655-7.23 .24-8.01 .433-8.92-1.039-8.92"/>
<path transform="matrix(1,0,0,-1,382.6153,391.8991)" d="M0 0C1.334-.376 3.482-1.051 4.439-.669 5.392-.288 6.283-.099 6.471-1.18 6.664-2.258 6.535-3.726 5.201-3.596 3.865-3.467 2.21-3.193 1.739-4.24 .85-6.211 .748-7.41-.972-7.41Z" fill="#e6e7e8"/>
<path transform="matrix(1,0,0,-1,382.6153,391.8991)" stroke-width=".4" stroke-linecap="round" stroke-linejoin="round" fill="none" stroke="#6d6e71" d="M0 0C1.334-.376 3.482-1.051 4.439-.669 5.392-.288 6.283-.099 6.471-1.18 6.664-2.258 6.535-3.726 5.201-3.596 3.865-3.467 2.21-3.193 1.739-4.24 .85-6.211 .748-7.41-.972-7.41L0 0Z"/>
<path transform="matrix(1,0,0,-1,376.1407,399.3479)" d="M0 0C.702 .193 1.907 .704 2.232 2.121 2.385 2.788 4.081 2.121 4.081 .704 4.081-.069 4.115-.628 4.622-1.454 5.13-2.283 8.912-1.784 8.976 .382 9.039 2.542 8.559 3.812 8.43 5.275 8.306 6.737 8.322 6.573 8.322 7.884 8.322 8.16 8.268 8.974 8.214 9.845 8.076 12.086 4.291 13.416 4.516 10.933 4.641 9.531 4.516 9.518 4.35 9.03 4.107 8.283 3.643 8.486 2.664 8.16 2.664 8.16 1.526 7.998 0 8.048" fill="#e6e7e8"/>
<path transform="matrix(1,0,0,-1,376.1407,399.3479)" stroke-width=".4" stroke-linecap="round" stroke-linejoin="round" fill="none" stroke="#6d6e71" d="M0 0C.702 .193 1.907 .704 2.232 2.121 2.385 2.788 4.081 2.121 4.081 .704 4.081-.069 4.115-.628 4.622-1.454 5.13-2.283 8.912-1.784 8.976 .382 9.039 2.542 8.559 3.812 8.43 5.275 8.306 6.737 8.322 6.573 8.322 7.884 8.322 8.16 8.268 8.974 8.214 9.845 8.076 12.086 4.291 13.416 4.516 10.933 4.641 9.531 4.516 9.518 4.35 9.03 4.107 8.283 3.643 8.486 2.664 8.16 2.664 8.16 1.526 7.998 0 8.048"/>
<path transform="matrix(1,0,0,-1,376.1407,398.6443)" d="M0 0C.639 0 1.516 .615 1.579 2.273 1.645 3.924 1.206 4.938 1.146 6.531" fill="#e6e7e8"/>
<path transform="matrix(1,0,0,-1,376.1407,398.6443)" stroke-width=".4" stroke-linecap="round" stroke-linejoin="round" fill="none" stroke="#6d6e71" d="M0 0C.639 0 1.516 .615 1.579 2.273 1.645 3.924 1.206 4.938 1.146 6.531"/>
<path transform="matrix(1,0,0,-1,371.671,407.3401)" d="M0 0C-2.081-.266-2.1-2.113-4.708 1.143-6.745 3.688-6.371 1.452-8.08 1.905-9.659 2.331-10.434 2.377-10.777 3.039-11.221 3.908-11.811 4.155-11.539 5.105-11.101 6.631-8.057 5.946-7.187 5.543-5.535 4.417-4.989 7.576-3.88 8.145Z" fill="#e6e7e8"/>
<path transform="matrix(1,0,0,-1,371.671,407.3401)" stroke-width=".4" stroke-linecap="round" stroke-linejoin="round" fill="none" stroke="#6d6e71" d="M0 0C-2.081-.266-2.1-2.113-4.708 1.143-6.745 3.688-6.371 1.452-8.08 1.905-9.659 2.331-10.434 2.377-10.777 3.039-11.221 3.908-11.811 4.155-11.539 5.105-11.101 6.631-8.057 5.946-7.187 5.543-5.535 4.417-4.989 7.576-3.88 8.145L0 0Z"/>
<path transform="matrix(1,0,0,-1,376.3019,412.9646)" d="M0 0C-.481 0-1.594-.359-2.211-.073-2.397 .013-3.212 .584-3.241 .736-3.324 1.195-3.628 2.2-4.267 2.132-5.277 2.026-5.86 1.587-6.627 .441-7.825-1.355-10.87 1.681-9.792 3.681L-8.752 7.774C-9.068 8.983-10.025 9.618-10.025 11.02-10.025 11.92-9.519 12.795-9.579 13.69-9.705 15.601-9.969 15.395-8.991 16.262-8.693 16.53-7.543 17-7.734 15.09-7.887 13.563-7.483 13.221-6.707 12.784-5.688 12.211-5.284 12.755-4.963 13.33-4.646 13.9-3.207 13.038-2.572 12.784-1.934 12.529-1.217 12.747-.068 12.747" fill="#e6e7e8"/>
<path transform="matrix(1,0,0,-1,376.3019,412.9646)" stroke-width=".4" stroke-linecap="round" stroke-linejoin="round" fill="none" stroke="#6d6e71" d="M0 0C-.481 0-1.594-.359-2.211-.073-2.397 .013-3.212 .584-3.241 .736-3.324 1.195-3.628 2.2-4.267 2.132-5.277 2.026-5.86 1.587-6.627 .441-7.825-1.355-10.87 1.681-9.792 3.681L-8.752 7.774C-9.068 8.983-10.025 9.618-10.025 11.02-10.025 11.92-9.519 12.795-9.579 13.69-9.705 15.601-9.969 15.395-8.991 16.262-8.693 16.53-7.543 17-7.734 15.09-7.887 13.563-7.483 13.221-6.707 12.784-5.688 12.211-5.284 12.755-4.963 13.33-4.646 13.9-3.207 13.038-2.572 12.784-1.934 12.529-1.217 12.747-.068 12.747"/>
<path transform="matrix(1,0,0,-1,369.7037,391.8991)" d="M0 0C-1.333-.376-3.482-1.051-4.437-.669-5.39-.288-6.282-.099-6.47-1.18-6.663-2.258-6.535-3.726-5.2-3.596-3.862-3.467-2.21-3.193-1.738-4.24-.849-6.211-.747-7.41 .972-7.41Z" fill="#e6e7e8"/>
<path transform="matrix(1,0,0,-1,369.7037,391.8991)" stroke-width=".4" stroke-linecap="round" stroke-linejoin="round" fill="none" stroke="#6d6e71" d="M0 0C-1.333-.376-3.482-1.051-4.437-.669-5.39-.288-6.282-.099-6.47-1.18-6.663-2.258-6.535-3.726-5.2-3.596-3.862-3.467-2.21-3.193-1.738-4.24-.849-6.211-.747-7.41 .972-7.41L0 0Z"/>
<path transform="matrix(1,0,0,-1,376.1783,399.3479)" d="M0 0C-.701 .193-1.905 .704-2.23 2.121-2.384 2.788-4.08 2.121-4.08 .704-4.08-.069-4.113-.628-4.621-1.454-5.13-2.283-8.911-1.784-8.976 .382-9.038 2.542-8.559 3.812-8.43 5.275-8.303 6.737-8.32 6.573-8.32 7.884-8.32 8.16-8.268 8.974-8.213 9.845-8.074 12.086-4.29 13.416-4.514 10.933-4.64 9.531-4.514 9.518-4.35 9.03-4.105 8.283-3.643 8.486-2.665 8.16-2.665 8.16-1.525 7.998 0 8.048" fill="#e6e7e8"/>
<path transform="matrix(1,0,0,-1,376.1783,399.3479)" stroke-width=".4" stroke-linecap="round" stroke-linejoin="round" fill="none" stroke="#6d6e71" d="M0 0C-.701 .193-1.905 .704-2.23 2.121-2.384 2.788-4.08 2.121-4.08 .704-4.08-.069-4.113-.628-4.621-1.454-5.13-2.283-8.911-1.784-8.976 .382-9.038 2.542-8.559 3.812-8.43 5.275-8.303 6.737-8.32 6.573-8.32 7.884-8.32 8.16-8.268 8.974-8.213 9.845-8.074 12.086-4.29 13.416-4.514 10.933-4.64 9.531-4.514 9.518-4.35 9.03-4.105 8.283-3.643 8.486-2.665 8.16-2.665 8.16-1.525 7.998 0 8.048"/>
<path transform="matrix(1,0,0,-1,376.1783,398.6443)" d="M0 0C-.637 0-1.515 .615-1.579 2.273-1.643 3.924-1.205 4.938-1.144 6.531" fill="#e6e7e8"/>
<path transform="matrix(1,0,0,-1,376.1783,398.6443)" stroke-width=".4" stroke-linecap="round" stroke-linejoin="round" fill="none" stroke="#6d6e71" d="M0 0C-.637 0-1.515 .615-1.579 2.273-1.643 3.924-1.205 4.938-1.144 6.531"/>
<path transform="matrix(1,0,0,-1,375.0235,403.1618)" d="M0 0C.021-.658-.509-4.132-.592-4.965-.671-5.769-1.016-6.544-.655-7.23-.238-8.01-.432-8.92 1.038-8.92" fill="#e6e7e8"/>
<path transform="matrix(1,0,0,-1,375.0235,403.1618)" stroke-width=".4" stroke-linecap="round" stroke-linejoin="round" fill="none" stroke="#6d6e71" d="M0 0C.021-.658-.509-4.132-.592-4.965-.671-5.769-1.016-6.544-.655-7.23-.238-8.01-.432-8.92 1.038-8.92"/>
<path transform="matrix(1,0,0,-1,375.2159,456.6306)" d="M0 0C-.018 .27 .03 .461 .149 .407 .234 .368 .525 .374 .822 .37 1.119 .374 1.407 .368 1.493 .407 1.612 .461 1.66 .27 1.643 0 1.735-.438 1.879-1.269 1.688-1.269 1.454-1.269 1.489-1.384 .822-1.354 .155-1.384 .19-1.269-.045-1.269-.238-1.269-.091-.438 0 0" fill="#e6e7e8"/>
<path transform="matrix(1,0,0,-1,375.2159,456.6306)" stroke-width=".4" stroke-linecap="round" stroke-linejoin="round" fill="none" stroke="#6d6e71" d="M0 0C-.018 .27 .03 .461 .149 .407 .234 .368 .525 .374 .822 .37 1.119 .374 1.407 .368 1.493 .407 1.612 .461 1.66 .27 1.643 0 1.735-.438 1.879-1.269 1.688-1.269 1.454-1.269 1.489-1.384 .822-1.354 .155-1.384 .19-1.269-.045-1.269-.238-1.269-.091-.438 0 0Z"/>
<path transform="matrix(1,0,0,-1,374.7892,454.718)" d="M0 0C.061-.021 .222-.021 .427-.011L.431 0C.451 .075 .826 .066 1.249 .041 1.671 .066 2.044 .075 2.066 0L2.068-.011C2.274-.021 2.436-.021 2.498 0 2.811 .112 2.545-1.506 2.065-1.758L1.983-1.789C1.942-1.886 1.893-1.949 1.828-1.967 1.656-2.003 1.458-2.011 1.249-1.99 1.041-2.011 .839-2.003 .671-1.967 .604-1.949 .552-1.886 .511-1.789L.433-1.758C-.049-1.506-.315 .112 0 0" fill="#e6e7e8"/>
<path transform="matrix(1,0,0,-1,374.7892,454.718)" stroke-width=".4" stroke-linecap="round" stroke-linejoin="round" fill="none" stroke="#6d6e71" d="M0 0C.061-.021 .222-.021 .427-.011L.431 0C.451 .075 .826 .066 1.249 .041 1.671 .066 2.044 .075 2.066 0L2.068-.011C2.274-.021 2.436-.021 2.498 0 2.811 .112 2.545-1.506 2.065-1.758L1.983-1.789C1.942-1.886 1.893-1.949 1.828-1.967 1.656-2.003 1.458-2.011 1.249-1.99 1.041-2.011 .839-2.003 .671-1.967 .604-1.949 .552-1.886 .511-1.789L.433-1.758C-.049-1.506-.315 .112 0 0Z"/>
<path transform="matrix(1,0,0,-1,372.7232,452.2053)" d="M0 0C.282-.042 2.089 .037 2.929 .041 3.01 .112 3.157 .102 3.314 .077 3.469 .102 3.616 .112 3.7 .041 4.54 .037 6.345-.042 6.628 0 6.917 .041 7.35-.879 6.773-1.213 6.198-1.548 5.187-2.345 4.9-2.721 4.701-2.981 3.896-2.981 3.314-2.944 2.735-2.981 1.926-2.981 1.73-2.721 1.441-2.345 .431-1.548-.145-1.213-.721-.879-.288 .041 0 0" fill="#e6e7e8"/>
<path transform="matrix(1,0,0,-1,372.7232,452.2053)" stroke-width=".4" stroke-linecap="round" stroke-linejoin="round" fill="none" stroke="#6d6e71" d="M0 0C.282-.042 2.089 .037 2.929 .041 3.01 .112 3.157 .102 3.314 .077 3.469 .102 3.616 .112 3.7 .041 4.54 .037 6.345-.042 6.628 0 6.917 .041 7.35-.879 6.773-1.213 6.198-1.548 5.187-2.345 4.9-2.721 4.701-2.981 3.896-2.981 3.314-2.944 2.735-2.981 1.926-2.981 1.73-2.721 1.441-2.345 .431-1.548-.145-1.213-.721-.879-.288 .041 0 0Z"/>
<path transform="matrix(1,0,0,-1,369.8878,449.2361)" d="M0 0C.625 .125 2.307 0 2.307 .92 2.307 1.382 2.45 2.551 2.548 2.929 2.548 2.929 6.004 2.467 6.004 1.922 6.004 1.726 6.082 .972 6.15 .087 6.216 .972 6.294 1.726 6.294 1.922 6.294 2.467 9.752 2.929 9.752 2.929 9.847 2.551 9.993 1.382 9.993 .92 9.993 0 11.675 .125 12.298 0 12.922-.124 13.501-1.465 12.394-1.716 11.29-1.965 9.512-1.548 9.321-2.05 9.128-2.551 9.128-3.347 8.214-3.43 7.301-3.513 6.966-3.6 6.34-3.473 6.254-3.457 6.195-3.347 6.15-3.184 6.104-3.347 6.044-3.457 5.957-3.473 5.334-3.6 4.997-3.513 4.084-3.43 3.173-3.347 3.173-2.551 2.98-2.05 2.787-1.548 1.007-1.965-.098-1.716-1.202-1.465-.624-.124 0 0" fill="#e6e7e8"/>
<path transform="matrix(1,0,0,-1,369.8878,449.2361)" stroke-width=".4" stroke-linecap="round" stroke-linejoin="round" fill="none" stroke="#6d6e71" d="M0 0C.625 .125 2.307 0 2.307 .92 2.307 1.382 2.45 2.551 2.548 2.929 2.548 2.929 6.004 2.467 6.004 1.922 6.004 1.726 6.082 .972 6.15 .087 6.216 .972 6.294 1.726 6.294 1.922 6.294 2.467 9.752 2.929 9.752 2.929 9.847 2.551 9.993 1.382 9.993 .92 9.993 0 11.675 .125 12.298 0 12.922-.124 13.501-1.465 12.394-1.716 11.29-1.965 9.512-1.548 9.321-2.05 9.128-2.551 9.128-3.347 8.214-3.43 7.301-3.513 6.966-3.6 6.34-3.473 6.254-3.457 6.195-3.347 6.15-3.184 6.104-3.347 6.044-3.457 5.957-3.473 5.334-3.6 4.997-3.513 4.084-3.43 3.173-3.347 3.173-2.551 2.98-2.05 2.787-1.548 1.007-1.965-.098-1.716-1.202-1.465-.624-.124 0 0Z"/>
<path transform="matrix(1,0,0,-1,357.1422,422.804)" d="M0 0C.336 1.606 2.679 11.356 2.679 11.356 3.111 11.407 7.11 9.234 7.495 8.68 7.88 8.129 9.224 7.174 9.609 7.276 9.993 7.375 10.331 8.578 11.05 9.234 11.77 9.884 12.875 11.541 13.836 11.039 14.798 10.535 14.895 9.331 14.942 8.279 14.99 7.225 15.483 3.362 18.605 3.21 18.823 3.201 19.606 3.249 19.856 3.26 22.978 3.413 23.123 7.225 23.169 8.279 23.217 9.331 23.316 10.535 24.275 11.039 25.237 11.541 26.341 9.884 27.062 9.234 27.781 8.578 28.121 7.375 28.502 7.276 28.889 7.174 30.232 8.129 30.617 8.68 31.002 9.234 35.002 11.407 35.436 11.356 35.436 11.356 37.777 1.606 38.113 0 38.448-1.606 37.777-8.178 36.959-8.881 36.143-9.583 34.604-12.194 34.316-12.695 33.619-13.908 32.685-17.161 31.05-18.964 30.041-20.084 25.958-21.625 24.324-22.376 22.689-23.132 21.536-25.391 21.008-26.195 20.574-26.851 19.412-27.393 19.057-26.991 18.699-27.393 17.538-26.851 17.102-26.195 16.576-25.391 15.423-23.132 13.789-22.376 12.154-21.625 8.072-20.084 7.061-18.964 5.429-17.161 4.493-13.908 3.795-12.695 3.506-12.194 1.97-9.583 1.153-8.881 .336-8.178-.336-1.606 0 0" fill="#e6e7e8"/>
<path transform="matrix(1,0,0,-1,357.1422,422.804)" stroke-width=".4" stroke-linecap="round" stroke-linejoin="round" fill="none" stroke="#6d6e71" d="M0 0C.336 1.606 2.679 11.356 2.679 11.356 3.111 11.407 7.11 9.234 7.495 8.68 7.88 8.129 9.224 7.174 9.609 7.276 9.993 7.375 10.331 8.578 11.05 9.234 11.77 9.884 12.875 11.541 13.836 11.039 14.798 10.535 14.895 9.331 14.942 8.279 14.99 7.225 15.483 3.362 18.605 3.21 18.823 3.201 19.606 3.249 19.856 3.26 22.978 3.413 23.123 7.225 23.169 8.279 23.217 9.331 23.316 10.535 24.275 11.039 25.237 11.541 26.341 9.884 27.062 9.234 27.781 8.578 28.121 7.375 28.502 7.276 28.889 7.174 30.232 8.129 30.617 8.68 31.002 9.234 35.002 11.407 35.436 11.356 35.436 11.356 37.777 1.606 38.113 0 38.448-1.606 37.777-8.178 36.959-8.881 36.143-9.583 34.604-12.194 34.316-12.695 33.619-13.908 32.685-17.161 31.05-18.964 30.041-20.084 25.958-21.625 24.324-22.376 22.689-23.132 21.536-25.391 21.008-26.195 20.574-26.851 19.412-27.393 19.057-26.991 18.699-27.393 17.538-26.851 17.102-26.195 16.576-25.391 15.423-23.132 13.789-22.376 12.154-21.625 8.072-20.084 7.061-18.964 5.429-17.161 4.493-13.908 3.795-12.695 3.506-12.194 1.97-9.583 1.153-8.881 .336-8.178-.336-1.606 0 0Z"/>
<path transform="matrix(1,0,0,-1,386.7027,422.301)" stroke-width=".4" stroke-linecap="round" stroke-linejoin="round" fill="none" stroke="#6d6e71" d="M0 0C-.127 .262-.77-.653-1.106-.806-1.439-.954-1.826-1.105-1.921-1.307-2.018-1.506-1.394-2.011-.961-2.059-.527-2.109 .143-1.656 .143-1.105 .143-.555 .143-.303 0 0Z"/>
<path transform="matrix(1,0,0,-1,386.9029,428.7258)" stroke-width=".4" stroke-linecap="round" stroke-linejoin="round" fill="none" stroke="#6d6e71" d="M0 0C-.23 .409-1.298 .452-1.636 .201-1.971-.048-2.933-1.103-2.451-1.554-1.971-2.005-1.013-2.157-.579-1.754-.146-1.354 .333-.602 0 0Z"/>
<path transform="matrix(1,0,0,-1,386.1236,434.9978)" stroke-width=".4" stroke-linecap="round" stroke-linejoin="round" fill="none" stroke="#6d6e71" d="M0 0C-.19 .451-1.009 .553-1.537 .351-2.064 .152-2.689-.853-2.593-1.402-2.498-1.957-1.921-2.458-1.391-2.407-.864-2.356-.287-2.107-.047-1.402"/>
<path transform="matrix(1,0,0,-1,384.857,440.1155)" stroke-width=".4" stroke-linecap="round" stroke-linejoin="round" fill="none" stroke="#6d6e71" d="M0 0C-.045 .403-.911 .6-1.297 .251-1.681-.098-2.111-1.004-1.776-1.255-1.438-1.504 .146-1.305 0 0Z"/>
<path transform="matrix(1,0,0,-1,376.3087,417.4861)" d="M0 0C.334-.033 .912-.251 .912-.752 .912-1.253 .625-2.709 .579-3.06 .527-3.411 .818-4.466 .625-4.869 .434-5.268-.816-5.571-.864-4.616-.911-3.662-.768-3.712-.719-3.06-.672-2.409-.961-1.155-.961-.7-.961-.251-.479 .052 0 0" fill="#e6e7e8"/>
<path transform="matrix(1,0,0,-1,376.3087,417.4861)" stroke-width=".4" stroke-linecap="round" stroke-linejoin="round" fill="none" stroke="#6d6e71" d="M0 0C.334-.033 .912-.251 .912-.752 .912-1.253 .625-2.709 .579-3.06 .527-3.411 .818-4.466 .625-4.869 .434-5.268-.816-5.571-.864-4.616-.911-3.662-.768-3.712-.719-3.06-.672-2.409-.961-1.155-.961-.7-.961-.251-.479 .052 0 0Z"/>
<path transform="matrix(1,0,0,-1,376.1158,425.2625)" stroke-width=".4" stroke-linecap="round" stroke-linejoin="round" fill="none" stroke="#6d6e71" d="M0 0C.384-.044 .915-.303 .915-1.003 .915-1.705 .675-2.408 .72-2.81 .772-3.212 1.153-4.665 .675-5.218 .193-5.769 .145-5.669-.144-5.571-.432-5.468-1.105-5.32-1.008-4.417-.912-3.511-.526-3.212-.575-2.759-.623-2.31-.912-1.105-.863-.654-.816-.201-.432 .05 0 0Z"/>
<path transform="matrix(1,0,0,-1,375.9063,433.2898)" stroke-width=".4" stroke-linecap="round" stroke-linejoin="round" fill="none" stroke="#6d6e71" d="M0 0C.483-.05 1.202-.505 1.108-1.104 1.011-1.708 .771-3.062 0-3.062-.765-3.062-.958-1.708-.958-1.004-.958-.303-.479 .048 0 0Z"/>
<path transform="matrix(1,0,0,-1,376.836,422.7038)" stroke-width=".4" stroke-linecap="round" stroke-linejoin="round" fill="none" stroke="#6d6e71" d="M0 0C-.286-.353-.286-2.107-.143-2.661"/>
<path transform="matrix(1,0,0,-1,375.5895,422.5051)" stroke-width=".4" stroke-linecap="round" stroke-linejoin="round" fill="none" stroke="#6d6e71" d="M0 0C.094-.449 .241-2.056 .094-2.607"/>
<path transform="matrix(1,0,0,-1,376.4068,430.883)" stroke-width=".4" stroke-linecap="round" stroke-linejoin="round" fill="none" stroke="#6d6e71" d="M0 0C-.146-.351-.162-2.071-.02-2.524"/>
<path transform="matrix(1,0,0,-1,375.3976,430.5324)" stroke-width=".4" stroke-linecap="round" stroke-linejoin="round" fill="none" stroke="#6d6e71" d="M0 0C.047-.25 .239-2.41 0-2.807"/>
<path transform="matrix(1,0,0,-1,385.6441,415.5281)" stroke-width=".4" stroke-linecap="round" stroke-linejoin="round" fill="none" stroke="#6d6e71" d="M0 0C-.479-.051-1.248-1.758-.381-2.86"/>
<path transform="matrix(1,0,0,-1,365.6949,422.301)" stroke-width=".4" stroke-linecap="round" stroke-linejoin="round" fill="none" stroke="#6d6e71" d="M0 0C.124 .262 .767-.653 1.103-.806 1.44-.954 1.826-1.105 1.922-1.307 2.017-1.506 1.391-2.011 .962-2.059 .526-2.109-.145-1.656-.145-1.105-.145-.555-.145-.303 0 0Z"/>
<path transform="matrix(1,0,0,-1,365.4962,428.7258)" stroke-width=".4" stroke-linecap="round" stroke-linejoin="round" fill="none" stroke="#6d6e71" d="M0 0C.226 .409 1.296 .452 1.631 .201 1.969-.048 2.931-1.103 2.449-1.554 1.969-2.005 1.006-2.157 .577-1.754 .141-1.354-.337-.602 0 0Z"/>
<path transform="matrix(1,0,0,-1,366.2706,434.9978)" stroke-width=".4" stroke-linecap="round" stroke-linejoin="round" fill="none" stroke="#6d6e71" d="M0 0C.192 .451 1.009 .553 1.541 .351 2.067 .152 2.689-.853 2.596-1.402 2.5-1.957 1.922-2.458 1.395-2.407 .866-2.356 .289-2.107 .05-1.402"/>
<path transform="matrix(1,0,0,-1,367.5362,440.1155)" stroke-width=".4" stroke-linecap="round" stroke-linejoin="round" fill="none" stroke="#6d6e71" d="M0 0C.046 .403 .912 .6 1.298 .251 1.683-.098 2.115-1.004 1.778-1.255 1.443-1.504-.142-1.305 0 0Z"/>
<path transform="matrix(1,0,0,-1,366.7516,415.5281)" stroke-width=".4" stroke-linecap="round" stroke-linejoin="round" fill="none" stroke="#6d6e71" d="M0 0C.479-.051 1.25-1.758 .384-2.86"/>
<path transform="matrix(1,0,0,-1,370.5113,443.8792)" stroke-width=".4" stroke-linecap="round" stroke-linejoin="round" fill="none" stroke="#6d6e71" d="M0 0C.145 .052 1.008 .152 1.297-.201 1.585-.549 1.73-.953 2.546-1.153 3.362-1.354 3.843-1.301 4.082-.953 4.323-.602 4.082 4.363 4.082 5.169 4.082 5.972 4.9 6.375 5.19 6.375H5.86C6.149 6.375 6.966 5.972 6.966 5.169 6.966 4.363 6.729-.602 6.966-.953 7.208-1.301 7.688-1.354 8.504-1.153 9.32-.953 9.464-.549 9.754-.201 10.04 .152 10.906 .052 11.051 0"/>
<path transform="matrix(1,0,0,-1,389.0709,459.7498)" d="M0 0C.482 .557 3.384 1.874 4.89 2.368 5.87 2.689 8.547 3.096 9.601 3.315 11.575 3.727 12.81 2.739 12.562 1.094 12.465 .448 12.431-2.566 11.739-6.31 11.163-9.436 10.656-12.411 9.683-12.645 8.944-12.822 8.366-12.892 7.462-12.974 5.894-13.117 2.879-7.273 1.784-5.734 1.311-5.067-.452-4.78-1.259-4.747-2.569-4.693-3.157-4.406-3.562-3.43-3.862-2.698-3.826-2.256-3.892-1.95-3.964-1.639-.375-.432 0 0M-12.53 .924C-12.53 .266-12.447-2.975-12.447-3.595-12.447-4.829-9.755-4.857-8.498-5.158-6.443-5.652-4.457-11.128-1.917-12.233-.211-12.972 1.483-16.363 5.733-17.91 6.702-18.262 12.461-17.202 13.632-16.552 14.372-16.141 15.524-9.517 15.936-8.285 16.347-7.05 18.485-1.456 18.63 .547 18.63 .547 18.429 .976 18.897 1.176 19.473 1.423 20.56 1.525 21.565 2.431 22.396 3.177 29.073 9.669 31.262 11.272 33.448 12.874 33.659 15.716 33.659 16.952 33.659 18.179 30.632 21.379 30.222 21.744 29.811 22.116 31.134 23.75 31.271 24.12 31.406 24.489 32.228 24.489 33.185 25.108 34.144 25.725 33.866 27.694 34.279 28.927 34.685 30.161 34.939 29.604 35.897 30.222 36.771 29.679 36.465 27.028 37.978 26.861 43.014 26.303 43.597 31.578 43.812 32.299 44.399 34.28 45.343 36.948 45.894 38.054 46.438 39.167 45.35 46.215 44.854 47.169 43.396 49.963 40.708 56.666 36.693 59.532 34.049 61.423 24.705 63.655 22.749 63.726 20.38 63.809 14.046 61.097 12.13 60.111 10.218 59.122 7.62 55.057 6.801 54.194 5.982 53.33 2.976 52.714 2.837 51.481 2.7 50.25 1.989 49.009 2.26 47.653 2.26 47.653 3.526 44.248 3.701 43.655 4.497 40.935 3.366 36.593 4.179 35.818 6.991 33.137 4.272 30.76 4.771 29.065 5.388 26.967 6.868 25.24 9.457 26.225 10.226 26.517 12.489 26.176 12.543 24.611 12.815 16.791 7.218 13.277 3.153 8.017-.28 3.567-4.22 2.791-6.607 2.117-9.461 1.311-12.53 1.911-12.53 .924" fill="#e6e7e8"/>
<path transform="matrix(1,0,0,-1,389.0709,459.7498)" stroke-width=".4" stroke-linecap="round" stroke-linejoin="round" fill="none" stroke="#6d6e71" d="M0 0C.482 .557 3.384 1.874 4.89 2.368 5.87 2.689 8.547 3.096 9.601 3.315 11.575 3.727 12.81 2.739 12.562 1.094 12.465 .448 12.431-2.566 11.739-6.31 11.163-9.436 10.656-12.411 9.683-12.645 8.944-12.822 8.366-12.892 7.462-12.974 5.894-13.117 2.879-7.273 1.784-5.734 1.311-5.067-.452-4.78-1.259-4.747-2.569-4.693-3.157-4.406-3.562-3.43-3.862-2.698-3.826-2.256-3.892-1.95-3.964-1.639-.375-.432 0 0ZM-12.53 .924C-12.53 .266-12.447-2.975-12.447-3.595-12.447-4.829-9.755-4.857-8.498-5.158-6.443-5.652-4.457-11.128-1.917-12.233-.211-12.972 1.483-16.363 5.733-17.91 6.702-18.262 12.461-17.202 13.632-16.552 14.372-16.141 15.524-9.517 15.936-8.285 16.347-7.05 18.485-1.456 18.63 .547 18.63 .547 18.429 .976 18.897 1.176 19.473 1.423 20.56 1.525 21.565 2.431 22.396 3.177 29.073 9.669 31.262 11.272 33.448 12.874 33.659 15.716 33.659 16.952 33.659 18.179 30.632 21.379 30.222 21.744 29.811 22.116 31.134 23.75 31.271 24.12 31.406 24.489 32.228 24.489 33.185 25.108 34.144 25.725 33.866 27.694 34.279 28.927 34.685 30.161 34.939 29.604 35.897 30.222 36.771 29.679 36.465 27.028 37.978 26.861 43.014 26.303 43.597 31.578 43.812 32.299 44.399 34.28 45.343 36.948 45.894 38.054 46.438 39.167 45.35 46.215 44.854 47.169 43.396 49.963 40.708 56.666 36.693 59.532 34.049 61.423 24.705 63.655 22.749 63.726 20.38 63.809 14.046 61.097 12.13 60.111 10.218 59.122 7.62 55.057 6.801 54.194 5.982 53.33 2.976 52.714 2.837 51.481 2.7 50.25 1.989 49.009 2.26 47.653 2.26 47.653 3.526 44.248 3.701 43.655 4.497 40.935 3.366 36.593 4.179 35.818 6.991 33.137 4.272 30.76 4.771 29.065 5.388 26.967 6.868 25.24 9.457 26.225 10.226 26.517 12.489 26.176 12.543 24.611 12.815 16.791 7.218 13.277 3.153 8.017-.28 3.567-4.22 2.791-6.607 2.117-9.461 1.311-12.53 1.911-12.53 .924Z"/>
<path transform="matrix(1,0,0,-1,393.2496,423.9319)" stroke-width=".4" stroke-linecap="round" stroke-linejoin="round" fill="none" stroke="#6d6e71" d="M0 0C.344-.297 2.15-1.407 2.542-2.885"/>
<path transform="matrix(1,0,0,-1,422.4469,401.8078)" stroke-width=".4" stroke-linecap="round" stroke-linejoin="round" fill="none" stroke="#6d6e71" d="M0 0C-.991 .777-7.732 2.334-11.188 2.139-14.645 1.946-17.84 .261-19.814-1.87-21.787-3.999-22.678-4.875-23.371-5.551-24.059-6.229-26.403-9.756-25.396-12.622-24.452-15.287-22.922-22.212-23.117-23.776-23.447-26.408-24.233-27.641-25.268-27.641-26.83-27.641-27.232-25.75-28.137-23.529"/>
<path transform="matrix(1,0,0,-1,428.3941,428.8337)" stroke-width=".4" stroke-linecap="round" stroke-linejoin="round" fill="none" stroke="#6d6e71" d="M0 0C-1.234 0-2.468-.37-3.426-.694"/>
<path transform="matrix(1,0,0,-1,400.607,440.8772)" stroke-width=".4" stroke-linecap="round" stroke-linejoin="round" fill="none" stroke="#6d6e71" d="M0 0C0-1.452-1.646-4.998-3.129-6.45-4.609-7.901-6.73-9.693-5.642-10.663-4.557-11.63-1.397-12.213-.559-14.052"/>
<path transform="matrix(1,0,0,-1,398.5279,433.5251)" stroke-width=".4" stroke-linecap="round" stroke-linejoin="round" fill="none" stroke="#6d6e71" d="M0 0C.54 .298 1.278 1.283 2.876 1.598"/>
<path transform="matrix(1,0,0,-1,426.983,406.4431)" stroke-width=".4" stroke-linecap="round" stroke-linejoin="round" fill="none" stroke="#6d6e71" d="M0 0C.422-.417 2.115-2.258 2.222-4.769"/>
<path transform="matrix(1,0,0,-1,411.484,494.4724)" stroke-width=".4" stroke-linecap="round" stroke-linejoin="round" fill="none" stroke="#6d6e71" d="M0 0C-.181-.305 .027-1.534 .039-1.867 .084-2.935 .334-3.924 .329-4.994 .294-9.038-.388-12.919-.822-16.88"/>
<path transform="matrix(1,0,0,-1,413.6764,517.9001)" stroke-width=".4" stroke-linecap="round" stroke-linejoin="round" fill="none" stroke="#6d6e71" d="M0 0C-.313 .565-.409 1.203-.236 1.841-.141 2.188 .196 2.628 .491 2.348 .977 1.895 .386 1.205 .432 .593"/>
<path transform="matrix(1,0,0,-1,411.8531,525.3279)" stroke-width=".4" stroke-linecap="round" stroke-linejoin="round" fill="none" stroke="#6d6e71" d="M0 0C-.561-5.922-1.56-11.773-2.373-17.666-3.099-22.901-3.894-28.127-3.962-33.415L-4.053-33.401"/>
<path transform="matrix(1,0,0,-1,413.7311,525.6277)" stroke-width=".4" stroke-linecap="round" stroke-linejoin="round" fill="none" stroke="#6d6e71" d="M0 0C-.248-1.619-.585-3.188-.986-4.804-1.056-5.065-1.263-5.274-1.287-5.495-1.96-10.464-2.737-15.378-2.871-20.427-2.954-23.41-3.175-26.326-3.272-29.304-3.314-30.555-3.841-31.72-4.005-32.953"/>
<path transform="matrix(1,0,0,-1,405.734,574.1682)" stroke-width=".4" stroke-linecap="round" stroke-linejoin="round" fill="none" stroke="#6d6e71" d="M0 0C-.367-1.438-.474-2.893-.88-4.355-1.119-5.207-1.436-5.98-1.688-6.828-2.659-10.074-3.464-12.883-4.755-15.992-5.073-16.766-5.601-17.393-6.032-18.092"/>
<path transform="matrix(1,0,0,-1,410.2096,575.6643)" stroke-width=".4" stroke-linecap="round" stroke-linejoin="round" fill="none" stroke="#6d6e71" d="M0 0C-.124-2.664-.808-5.318-1.028-7.99-1.041-8.18-.947-8.363-.96-8.553-.977-8.949-1.112-9.316-1.096-9.717-1.084-10.244-.952-10.736-.874-11.236-.764-11.955-.764-12.672-.729-13.424-.671-14.535-.281-15.533-.262-16.619"/>
<path transform="matrix(1,0,0,-1,414.6881,613.2385)" stroke-width=".4" stroke-linecap="round" stroke-linejoin="round" fill="none" stroke="#6d6e71" d="M0 0C-.167 1.025-1.163 1.596-1.529 2.492-2.002 3.658-2.286 4.848-2.962 5.926-3.532 6.844-4.305 7.549-5.271 8.018"/>
<path transform="matrix(1,0,0,-1,392.1803,604.2854)" stroke-width=".4" stroke-linecap="round" stroke-linejoin="round" fill="none" stroke="#6d6e71" d="M0 0C1.748 .693 4.165-.117 4.399-2.148 4.544-3.412 3.894-4.594 4.165-5.844 4.316-6.543 4.27-7.25 4.589-7.904 4.909-8.553 5.119-9.207 5.771-9.549 6.001-9.668 6.292-9.662 6.559-9.701"/>
<path transform="matrix(1,0,0,-1,408.2408,650.8205)" d="M0 0C.223 3.508 .407 6.252 .509 7.502 .923 12.697 1.354 15.695 2.274 17.039 3.196 18.377 3.771 19.262 3.798 19.984 3.824 20.709 3.861 25.197 3.986 26.496 4.106 27.795 2.004 28.758 .992 28.871-1.82 29.197-4.25 27.375-4.474 25.354-4.699 23.336-5.283 19.225-4.187 17.039-3.347 15.355-4.071 8.98-3.912 7.521-3.823 6.719-4.18 3.525-4.572 .342" fill="#e6e7e8"/>
<path transform="matrix(1,0,0,-1,408.2408,650.8205)" stroke-width=".4" stroke-linecap="round" stroke-linejoin="round" fill="none" stroke="#6d6e71" d="M0 0C.223 3.508 .407 6.252 .509 7.502 .923 12.697 1.354 15.695 2.274 17.039 3.196 18.377 3.771 19.262 3.798 19.984 3.824 20.709 3.861 25.197 3.986 26.496 4.106 27.795 2.004 28.758 .992 28.871-1.82 29.197-4.25 27.375-4.474 25.354-4.699 23.336-5.283 19.225-4.187 17.039-3.347 15.355-4.071 8.98-3.912 7.521-3.823 6.719-4.18 3.525-4.572 .342"/>
<path transform="matrix(1,0,0,-1,410.6744,477.4822)" stroke-width=".4" stroke-linecap="round" stroke-linejoin="round" fill="none" stroke="#6d6e71" d="M0 0C.498-.699 .871-1.488 1.146-2.275 1.576-3.469 1.3-4.796 1.445-6.065"/>
<path transform="matrix(1,0,0,-1,423.1725,453.4901)" stroke-width=".4" stroke-linecap="round" stroke-linejoin="round" fill="none" stroke="#6d6e71" d="M0 0C-.511-1.131-1.009-2.371-2.382-2.646"/>
<path transform="matrix(1,0,0,-1,409.7008,467.8855)" stroke-width=".4" stroke-linecap="round" stroke-linejoin="round" fill="none" stroke="#6d6e71" d="M0 0C.486 .209 .785 .645 1.187 .974 1.545 1.268 1.971 1.424 2.364 1.496 2.966 1.616 3.485 1.844 4.027 2.048 4.493 2.22 4.854 2.629 5.032 3.093 5.12 3.311 5.15 3.513 5.32 3.688"/>
<path transform="matrix(1,0,0,-1,422.2799,477.1804)" stroke-width=".4" stroke-linecap="round" stroke-linejoin="round" fill="none" stroke="#6d6e71" d="M0 0C-.02-.669-.1-1.364-.371-1.939-1.708-4.749-1.02-21.33-1.929-24.315-2.09-24.836-2.36-25.307-2.591-25.798"/>

</g>
<g clip-path="url(#clip_3)">

</g>
<g clip-path="url(#clip_4)">

</g>
<g clip-path="url(#clip_5)">

</g>
<g clip-path="url(#clip_6)">
<path transform="matrix(1,0,0,-1,412.1178,626.8293)" d="M0 0C.026 1.042 .062 2.008 .109 2.505 .175 3.211-.421 3.812-1.138 4.236-1.065 4.059-.999 3.892-.926 3.709-.609 2.92-.185 1.661 0 0" fill="#e6d2c9"/>
<path transform="matrix(1,0,0,-1,412.1178,626.8293)" stroke-width=".4" stroke-linecap="butt" stroke-miterlimit="4" stroke-linejoin="miter" fill="none" stroke="#a79a95" d="M0 0C.026 1.042 .062 2.008 .109 2.505 .175 3.211-.421 3.812-1.138 4.236-1.065 4.059-.999 3.892-.926 3.709-.609 2.92-.185 1.661 0 0Z"/>
<path transform="matrix(1,0,0,-1,389.6754,623.7033)" d="M0 0C-.502-1.463-.653-2.232-1.46-4.775-2.23-7.209-1.856-8.303-1.541-9.557-1.116-11.24-.894-12.393-.165-11.82 .674-9.786 4.67 1.038 7.021 7.583H1.249C.943 4.318 .532 1.563 0 0" fill="#fef1eb"/>
</g>
<g clip-path="url(#clip_7)">

</g>
<g clip-path="url(#clip_8)">
<path transform="matrix(1,0,0,-1,394.1324,619.4631)" d="M0 0C-.677-.186-2.426-.199-3.607-.24-3.857-1.906-4.151-3.332-4.457-4.24-4.937-5.637-5.104-6.42-5.816-8.691-5.041-10.068-4.443-12.797-4.102-14.379-4.078-14.482-4.067-14.607-4.047-14.725-2.659-11.539-.786-4.74 1.643 .844 .633 .596 .633 .176 0 0" fill="#e6d2c9"/>
<path transform="matrix(1,0,0,-1,394.1324,619.4631)" stroke-width=".4" stroke-linecap="butt" stroke-miterlimit="4" stroke-linejoin="miter" fill="none" stroke="#a79a95" d="M0 0C-.677-.186-2.426-.199-3.607-.24-3.857-1.906-4.151-3.332-4.457-4.24-4.937-5.637-5.104-6.42-5.816-8.691-5.041-10.068-4.443-12.797-4.102-14.379-4.078-14.482-4.067-14.607-4.047-14.725-2.659-11.539-.786-4.74 1.643 .844 .633 .596 .633 .176 0 0Z"/>


</g>
<g clip-path="url(#clip_9)">

</g>
<g clip-path="url(#clip_10)">

</g>
<g clip-path="url(#clip_11)">

</g>
<g clip-path="url(#clip_12)">

</g>
<g clip-path="url(#clip_13)">

</g>
<g clip-path="url(#clip_14)">
<path transform="matrix(1,0,0,-1,400.5377,592.2141)" stroke-width=".4" stroke-linecap="butt" stroke-miterlimit="4" stroke-linejoin="miter" fill="none" stroke="#a79a95" d="M0 0C-1.019-4.614-1.919-8.605-2.429-11.155-3.097-14.495-4.267-20.03-5.918-25.854-5.727-25.783-5.403-25.688-4.513-25.489-3.263-22.239-2.43-19.96-2.179-19.155-1.913-18.303 2.19-5.964 2.922-.917"/>
<path transform="matrix(1,0,0,-1,391.692,602.8694)" d="M0 0C-.417-6.75-.5-11.417-.979-16.245-.388-16.262 .197-16.162 .722-16.024 2.193-9.225 3.028-1.569 3.493 5.201 2.596 3.276 1.439 1.297 0 0" fill="#e6d2c9"/>
<path transform="matrix(1,0,0,-1,391.692,602.8694)" stroke-width=".4" stroke-linecap="butt" stroke-miterlimit="4" stroke-linejoin="miter" fill="none" stroke="#a79a95" d="M0 0C-.417-6.75-.5-11.417-.979-16.245-.388-16.262 .197-16.162 .722-16.024 2.193-9.225 3.028-1.569 3.493 5.201 2.596 3.276 1.439 1.297 0 0Z"/>
</g>
<g clip-path="url(#clip_15)">

</g>
<g clip-path="url(#clip_16)">
<path transform="matrix(1,0,0,-1,395.0279,599.7824)" stroke-width=".4" stroke-linecap="butt" stroke-miterlimit="4" stroke-linejoin="miter" fill="none" stroke="#a79a95" d="M0 0C-.488-6.223-1.294-13.009-2.614-19.111-1.687-18.868-.955-18.503-.759-18.427-.612-18.375-.542-18.336-.408-18.286 1.243-12.462 2.413-6.927 3.081-3.587 3.227-2.859 3.405-2.01 3.607-1.067"/>
</g>
<g clip-path="url(#clip_17)">

</g>
<g clip-path="url(#clip_18)">


<path transform="matrix(1,0,0,-1,404.4322,468.5051)" d="M0 0C-1.08-1.079-1.99-3.114-3.823-5.281-4.215-5.745-6.991-7.971-7.782-7.656L-8.106-8.307C-8.106-8.307-8.128-8.626-8.166-9.184-6.084-9.006-2.61-8.286-1.729-7.797-.989-7.386 .163-.761 .574 .471 .774 1.071 1.382 2.703 1.971 4.45 1.841 4.676 1.714 4.894 1.593 5.094 1.495 4.692 .439 .438 0 0" fill="#e6d2c9"/>
<path transform="matrix(1,0,0,-1,396.65,476.1614)" stroke-width=".4" stroke-linecap="butt" stroke-miterlimit="4" stroke-linejoin="miter" fill="none" stroke="#a79a95" d="M0 0-.324-.65C-.324-.65-.346-.97-.384-1.527 1.698-1.35 5.172-.629 6.053-.141 6.793 .271 7.945 6.895 8.356 8.127 8.557 8.727 9.164 10.359 9.753 12.106 9.623 12.332 9.496 12.55 9.375 12.75"/>


<path transform="matrix(1,0,0,-1,413.8932,611.8186)" stroke-width=".4" stroke-linecap="butt" stroke-miterlimit="4" stroke-linejoin="miter" fill="none" stroke="#a79a95" d="M0 0C-.284 .338-.572 .672-.734 1.072-1.207 2.238-1.491 3.428-2.167 4.506-2.737 5.424-3.51 6.129-4.477 6.598"/>





<path transform="matrix(1,0,0,-1,391.942,604.2033)" stroke-width=".4" stroke-linecap="butt" stroke-miterlimit="4" stroke-linejoin="miter" fill="none" stroke="#a79a95" d="M0 0C1.729 .568 4.412-.27 4.638-2.23 4.782-3.494 4.132-4.676 4.403-5.926 4.451-6.146 4.479-6.368 4.506-6.589"/>








<path transform="matrix(1,0,0,-1,376.1871,451.4602)" stroke-width=".5" stroke-linecap="round" stroke-linejoin="round" fill="none" stroke="#6d6e71" d="M0 0C0-8.951 .187-13.691 .692-16.844"/>
<path transform="matrix(1,0,0,-1,376.1871,451.4602)" stroke-width=".5" stroke-linecap="round" stroke-linejoin="round" fill="none" stroke="#6d6e71" d="M0 0C0-16.472-.632-18.685-2.722-22.987-4.318-26.275-6.064-28.934-7.891-30.301-10.166-32.009-15.563-37.127-32.342-36.345-32.342-36.345-40.394-35.703-41.574-35.504-45.518-34.841-52.168-31.804-57.808-23.552-58.662-22.301-60.672-19.118-61.51-16.856"/>













</g>














<g clip-path="url(#clip_19)">








































</g>

<g clip-path="url(#clip_20)">
<path transform="matrix(1,0,0,-1,408.7086,338.1408)" d="M0 0C.664 5.158 1.644 9.961 2.539 13.271 3.62 17.275 6.329 21.764 9.276 22.768 12.232 23.77 12.299 24.84 12.566 27.143 12.69 28.191 12.943 29.363 12.508 29.854 11.987 30.441 10.856 30.311 9.091 30.502 6.915 30.738 4.438 32.486 3.14 32.68 2.906 32.715 2.285 32.209 2.14 32.15 .784 31.619 1.217 32.373 .371 32.857-.475 33.338-2.696 31.924-3.576 31.678-4.457 31.436-6.713 31.469-7.88 31.385-9.043 31.299-9.939 32.055-10.44 30.775-10.946 29.5-11.505 29.82-11.297 28.357-11.082 26.902-10.239 24.424-9.438 23.074-8.643 21.73-8.024 18.914-7.678 17.299-7.327 15.686-7.656 12.715-7.678 10.568-7.69 9.041-8.254 3.842-8.588 .154" fill="#e6e7e8"/>
<path transform="matrix(1,0,0,-1,408.7086,338.1408)" stroke-width=".4" stroke-linecap="round" stroke-linejoin="round" fill="none" stroke="#6d6e71" d="M0 0C.664 5.158 1.644 9.961 2.539 13.271 3.62 17.275 6.329 21.764 9.276 22.768 12.232 23.77 12.299 24.84 12.566 27.143 12.69 28.191 12.943 29.363 12.508 29.854 11.987 30.441 10.856 30.311 9.091 30.502 6.915 30.738 4.438 32.486 3.14 32.68 2.906 32.715 2.285 32.209 2.14 32.15 .784 31.619 1.217 32.373 .371 32.857-.475 33.338-2.696 31.924-3.576 31.678-4.457 31.436-6.713 31.469-7.88 31.385-9.043 31.299-9.939 32.055-10.44 30.775-10.946 29.5-11.505 29.82-11.297 28.357-11.082 26.902-10.239 24.424-9.438 23.074-8.643 21.73-8.024 18.914-7.678 17.299-7.327 15.686-7.656 12.715-7.678 10.568-7.69 9.041-8.254 3.842-8.588 .154"/>
<path transform="matrix(1,0,0,-1,420.9205,185.63642)" d="M0 0C-.642-7.58-2.535-30.899-3.261-36.098-4.215-42.922-3.442-43.897-4.795-51.047-5.727-55.974-7.368-66.85-7.672-70.37-7.975-73.879-11.521-90.891-12.626-93.686-13.733-96.485-14.799-103.834-19.938-104.678-20.951-104.848-20.652-103.694-21.681-103.954-22.705-104.213-23.438-105.135-23.938-106.45-24.436-107.76-25.812-113.168-23.096-117.719-20.388-122.272-16.221-119.793-15.651-119.573-15.084-119.358-11.778-118.157-9.7-118.28-7.62-118.407-7.779-118.208-6.446-119.342-5.106-120.487-3.686-120.809-1.885-120.995-.09-121.182 .47-121.059 1.781-119.827 3.087-118.596 2.836-118.387 3.622-116.926 4.411-115.463 6.573-113.049 4.334-108.268 2.1-103.497 1.637-104.448 1.245-102.95 1.245-102.95 1.931-87.247 2.705-81.858 3.484-76.467 6.521-59.161 7.226-54.949 7.932-50.73 10.284-29.671 10.708-25.708 11.125-21.746 12.734-2.233 13.1 3.839 13.424 9.196 14.547 21.05 15.864 23.492 16.666 24.979 18.858 26.708 20.463 27.767 21.128 28.208 21.854 28.123 22.179 28.268 23.636 28.916 25.166 32.264 25.088 35.1 25.054 36.233 22.713 42.732 22.171 43.928 21.526 45.348 20.037 46.638 19.418 47.001 18.489 47.551 17.522 46.758 16.262 46.518 15.205 46.314 13.875 45.066 12.291 45.465 10.708 45.862 9.358 46.938 8.891 47.569 7.955 48.832 8.404 50.97 6.702 52.265 5.089 53.497-3.816 47.218-5.519 44.058-5.891 43.373-7.199 40.938-7.38 40.337-8.108 37.905-7.587 35.917-6.732 35.558-3.816 34.342-.498 35.477 .557 33.854 1.609 32.237-.202 30.839-.658 30.457-1.113 30.072-1.92 26.085-1.144 24.382 .516 20.735 1.017 21.24 1.124 19.2 1.205 17.578 .324 3.821 0 0" fill="#e6e7e8"/>
<path transform="matrix(1,0,0,-1,420.9205,185.63642)" stroke-width=".4" stroke-linecap="round" stroke-linejoin="round" fill="none" stroke="#6d6e71" d="M0 0C-.642-7.58-2.535-30.899-3.261-36.098-4.215-42.922-3.442-43.897-4.795-51.047-5.727-55.974-7.368-66.85-7.672-70.37-7.975-73.879-11.521-90.891-12.626-93.686-13.733-96.485-14.799-103.834-19.938-104.678-20.951-104.848-20.652-103.694-21.681-103.954-22.705-104.213-23.438-105.135-23.938-106.45-24.436-107.76-25.812-113.168-23.096-117.719-20.388-122.272-16.221-119.793-15.651-119.573-15.084-119.358-11.778-118.157-9.7-118.28-7.62-118.407-7.779-118.208-6.446-119.342-5.106-120.487-3.686-120.809-1.885-120.995-.09-121.182 .47-121.059 1.781-119.827 3.087-118.596 2.836-118.387 3.622-116.926 4.411-115.463 6.573-113.049 4.334-108.268 2.1-103.497 1.637-104.448 1.245-102.95 1.245-102.95 1.931-87.247 2.705-81.858 3.484-76.467 6.521-59.161 7.226-54.949 7.932-50.73 10.284-29.671 10.708-25.708 11.125-21.746 12.734-2.233 13.1 3.839 13.424 9.196 14.547 21.05 15.864 23.492 16.666 24.979 18.858 26.708 20.463 27.767 21.128 28.208 21.854 28.123 22.179 28.268 23.636 28.916 25.166 32.264 25.088 35.1 25.054 36.233 22.713 42.732 22.171 43.928 21.526 45.348 20.037 46.638 19.418 47.001 18.489 47.551 17.522 46.758 16.262 46.518 15.205 46.314 13.875 45.066 12.291 45.465 10.708 45.862 9.358 46.938 8.891 47.569 7.955 48.832 8.404 50.97 6.702 52.265 5.089 53.497-3.816 47.218-5.519 44.058-5.891 43.373-7.199 40.938-7.38 40.337-8.108 37.905-7.587 35.917-6.732 35.558-3.816 34.342-.498 35.477 .557 33.854 1.609 32.237-.202 30.839-.658 30.457-1.113 30.072-1.92 26.085-1.144 24.382 .516 20.735 1.017 21.24 1.124 19.2 1.205 17.578 .324 3.821 0 0Z"/>
<path transform="matrix(1,0,0,-1,441.0777,80.210819)" stroke-width=".5" stroke-linecap="round" stroke-linejoin="round" fill="none" stroke="#000000" d="M0 0C.164-.844 .341-1.676 .522-2.49 2.757-12.537 7.37-18.501 5.173-26.908 5.173-26.908 9.517-40.062 8.663-52.879 7.502-70.323 11.134-93.742 9.46-104.902 4.339-139.027 1.697-155.826-7.803-186.201-8.568-188.65-10.053-195.076-10.053-198.576-10.053-205.369-11.429-216.575-12.246-222.352-14.065-235.172-11.956-245.571-11.077-256.432"/>
<path transform="matrix(1,0,0,-1,387.3395,160.27863)" stroke-width=".5" stroke-linecap="round" stroke-linejoin="round" fill="none" stroke="#000000" d="M0 0C1.157 .148 2.669-3.931 2.727-4.14 3.742-7.711 2.387-13.222 2.252-20.564 2.001-34.265 1.043-50.825 1.79-57.197 3.491-71.746 2.029-84.415 1.365-98.093 1.181-101.974 1.311-106.383 1.311-108.758 1.022-120.041 .987-120.667 1.929-131.864 2.437-137.854 5.453-142.89 5.766-148.854 6.254-158.103 5.776-167.212 4.784-176.534"/>
<path transform="matrix(1,0,0,-1,333.6012,80.210819)" stroke-width=".5" stroke-linecap="round" stroke-linejoin="round" fill="none" stroke="#000000" d="M0 0C-.164-.844-.341-1.676-.522-2.49-2.757-12.537-7.37-18.501-5.173-26.908-5.173-26.908-9.517-40.062-8.663-52.879-7.502-70.323-11.134-93.742-9.46-104.902-4.339-139.027-1.697-155.826 7.803-186.201 8.568-188.65 10.053-195.076 10.053-198.576 10.053-205.369 11.429-216.575 12.246-222.352 14.065-235.172 11.956-245.571 11.077-256.432"/>
<path transform="matrix(1,0,0,-1,387.3395,160.27863)" stroke-width=".5" stroke-linecap="round" stroke-linejoin="round" fill="none" stroke="#000000" d="M0 0C-1.156 .148-2.67-3.931-2.727-4.14-3.742-7.711-2.387-13.222-2.252-20.564-2.001-34.265-1.043-50.825-1.79-57.197-3.491-71.746-2.029-84.415-1.365-98.093-1.181-101.974-1.311-106.383-1.311-108.758-1.022-120.041-.987-120.667-1.929-131.864-2.437-137.854-5.453-142.89-5.766-148.854-6.254-158.103-5.776-167.212-4.784-176.534"/>
<path transform="matrix(1,0,0,-1,395.1051,310.5139)" stroke-width=".4" stroke-linecap="round" stroke-linejoin="round" fill="none" stroke="#000000" d="M0 0C-1.062 1.26-1.451 2.135-2.321 4.746"/>
<path transform="matrix(1,0,0,-1,379.7154,310.5139)" stroke-width=".4" stroke-linecap="round" stroke-linejoin="round" fill="none" stroke="#000000" d="M0 0C1.064 1.26 1.449 2.135 2.321 4.746"/>
<path transform="matrix(1,0,0,-1,391.648,94.34009)" d="M0 0C2.083-.266 2.102-2.113 4.709 1.143 6.746 3.688 6.371 1.452 8.08 1.905 9.66 2.331 10.436 2.377 10.778 3.039 11.223 3.908 11.812 4.155 11.539 5.105 11.104 6.631 8.057 5.946 7.188 5.543 5.537 4.417 4.99 7.576 3.88 8.145Z" fill="#e6e7e8"/>
<path transform="matrix(1,0,0,-1,391.648,94.34009)" stroke-width=".4" stroke-linecap="round" stroke-linejoin="round" fill="none" stroke="#6d6e71" d="M0 0C2.083-.266 2.102-2.113 4.709 1.143 6.746 3.688 6.371 1.452 8.08 1.905 9.66 2.331 10.436 2.377 10.778 3.039 11.223 3.908 11.812 4.155 11.539 5.105 11.104 6.631 8.057 5.946 7.188 5.543 5.537 4.417 4.99 7.576 3.88 8.145L0 0Z"/>
<path transform="matrix(1,0,0,-1,387.0182,99.9646)" d="M0 0C.48 0 1.593-.359 2.211-.073 2.397 .013 3.212 .584 3.24 .736 3.324 1.195 3.629 2.2 4.268 2.132 5.277 2.026 5.86 1.587 6.627 .441 7.825-1.355 10.87 1.681 9.794 3.681L8.752 7.774C9.068 8.983 10.024 9.618 10.024 11.02 10.024 11.92 9.519 12.795 9.578 13.69 9.706 15.601 9.969 15.395 8.99 16.262 8.692 16.53 7.542 17 7.734 15.09 7.887 13.563 7.481 13.221 6.707 12.784 5.689 12.211 5.284 12.755 4.964 13.33 4.646 13.9 3.206 13.038 2.572 12.784 1.933 12.529 1.217 12.747 .068 12.747" fill="#e6e7e8"/>
<path transform="matrix(1,0,0,-1,387.0182,99.9646)" stroke-width=".4" stroke-linecap="round" stroke-linejoin="round" fill="none" stroke="#6d6e71" d="M0 0C.48 0 1.593-.359 2.211-.073 2.397 .013 3.212 .584 3.24 .736 3.324 1.195 3.629 2.2 4.268 2.132 5.277 2.026 5.86 1.587 6.627 .441 7.825-1.355 10.87 1.681 9.794 3.681L8.752 7.774C9.068 8.983 10.024 9.618 10.024 11.02 10.024 11.92 9.519 12.795 9.578 13.69 9.706 15.601 9.969 15.395 8.99 16.262 8.692 16.53 7.542 17 7.734 15.09 7.887 13.563 7.481 13.221 6.707 12.784 5.689 12.211 5.284 12.755 4.964 13.33 4.646 13.9 3.206 13.038 2.572 12.784 1.933 12.529 1.217 12.747 .068 12.747"/>
<path transform="matrix(1,0,0,-1,388.1319,90.161808)" d="M0 0C-.021-.658 .51-4.132 .594-4.965 .674-5.769 1.017-6.544 .655-7.23 .24-8.01 .433-8.92-1.039-8.92" fill="#e6e7e8"/>
<path transform="matrix(1,0,0,-1,388.1319,90.161808)" stroke-width=".4" stroke-linecap="round" stroke-linejoin="round" fill="none" stroke="#6d6e71" d="M0 0C-.021-.658 .51-4.132 .594-4.965 .674-5.769 1.017-6.544 .655-7.23 .24-8.01 .433-8.92-1.039-8.92"/>
<path transform="matrix(1,0,0,-1,393.6153,78.89911)" d="M0 0C1.334-.376 3.482-1.051 4.439-.669 5.392-.288 6.283-.099 6.471-1.18 6.664-2.258 6.535-3.726 5.201-3.596 3.865-3.467 2.21-3.193 1.739-4.24 .85-6.211 .748-7.41-.972-7.41Z" fill="#e6e7e8"/>
<path transform="matrix(1,0,0,-1,393.6153,78.89911)" stroke-width=".4" stroke-linecap="round" stroke-linejoin="round" fill="none" stroke="#6d6e71" d="M0 0C1.334-.376 3.482-1.051 4.439-.669 5.392-.288 6.283-.099 6.471-1.18 6.664-2.258 6.535-3.726 5.201-3.596 3.865-3.467 2.21-3.193 1.739-4.24 .85-6.211 .748-7.41-.972-7.41L0 0Z"/>
<path transform="matrix(1,0,0,-1,387.1407,86.3479)" d="M0 0C.702 .193 1.907 .704 2.232 2.121 2.385 2.788 4.081 2.121 4.081 .704 4.081-.069 4.115-.628 4.622-1.454 5.13-2.283 8.912-1.784 8.976 .382 9.039 2.542 8.559 3.812 8.43 5.275 8.306 6.737 8.322 6.573 8.322 7.884 8.322 8.16 8.268 8.974 8.214 9.845 8.076 12.086 4.291 13.416 4.516 10.933 4.641 9.531 4.516 9.518 4.35 9.03 4.107 8.283 3.643 8.486 2.664 8.16 2.664 8.16 1.526 7.998 0 8.048" fill="#e6e7e8"/>
<path transform="matrix(1,0,0,-1,387.1407,86.3479)" stroke-width=".4" stroke-linecap="round" stroke-linejoin="round" fill="none" stroke="#6d6e71" d="M0 0C.702 .193 1.907 .704 2.232 2.121 2.385 2.788 4.081 2.121 4.081 .704 4.081-.069 4.115-.628 4.622-1.454 5.13-2.283 8.912-1.784 8.976 .382 9.039 2.542 8.559 3.812 8.43 5.275 8.306 6.737 8.322 6.573 8.322 7.884 8.322 8.16 8.268 8.974 8.214 9.845 8.076 12.086 4.291 13.416 4.516 10.933 4.641 9.531 4.516 9.518 4.35 9.03 4.107 8.283 3.643 8.486 2.664 8.16 2.664 8.16 1.526 7.998 0 8.048"/>
<path transform="matrix(1,0,0,-1,387.1407,85.64429)" d="M0 0C.639 0 1.516 .615 1.579 2.273 1.645 3.924 1.206 4.938 1.146 6.531" fill="#e6e7e8"/>
<path transform="matrix(1,0,0,-1,387.1407,85.64429)" stroke-width=".4" stroke-linecap="round" stroke-linejoin="round" fill="none" stroke="#6d6e71" d="M0 0C.639 0 1.516 .615 1.579 2.273 1.645 3.924 1.206 4.938 1.146 6.531"/>
<path transform="matrix(1,0,0,-1,382.671,94.34009)" d="M0 0C-2.081-.266-2.1-2.113-4.708 1.143-6.745 3.688-6.371 1.452-8.08 1.905-9.659 2.331-10.434 2.377-10.777 3.039-11.221 3.908-11.811 4.155-11.539 5.105-11.101 6.631-8.057 5.946-7.187 5.543-5.535 4.417-4.989 7.576-3.88 8.145Z" fill="#e6e7e8"/>
<path transform="matrix(1,0,0,-1,382.671,94.34009)" stroke-width=".4" stroke-linecap="round" stroke-linejoin="round" fill="none" stroke="#6d6e71" d="M0 0C-2.081-.266-2.1-2.113-4.708 1.143-6.745 3.688-6.371 1.452-8.08 1.905-9.659 2.331-10.434 2.377-10.777 3.039-11.221 3.908-11.811 4.155-11.539 5.105-11.101 6.631-8.057 5.946-7.187 5.543-5.535 4.417-4.989 7.576-3.88 8.145L0 0Z"/>
<path transform="matrix(1,0,0,-1,387.3019,99.9646)" d="M0 0C-.481 0-1.594-.359-2.211-.073-2.397 .013-3.212 .584-3.241 .736-3.324 1.195-3.628 2.2-4.267 2.132-5.277 2.026-5.86 1.587-6.627 .441-7.825-1.355-10.87 1.681-9.792 3.681L-8.752 7.774C-9.068 8.983-10.025 9.618-10.025 11.02-10.025 11.92-9.519 12.795-9.579 13.69-9.705 15.601-9.969 15.395-8.991 16.262-8.693 16.53-7.543 17-7.734 15.09-7.887 13.563-7.483 13.221-6.707 12.784-5.688 12.211-5.284 12.755-4.963 13.33-4.646 13.9-3.207 13.038-2.572 12.784-1.934 12.529-1.217 12.747-.068 12.747" fill="#e6e7e8"/>
<path transform="matrix(1,0,0,-1,387.3019,99.9646)" stroke-width=".4" stroke-linecap="round" stroke-linejoin="round" fill="none" stroke="#6d6e71" d="M0 0C-.481 0-1.594-.359-2.211-.073-2.397 .013-3.212 .584-3.241 .736-3.324 1.195-3.628 2.2-4.267 2.132-5.277 2.026-5.86 1.587-6.627 .441-7.825-1.355-10.87 1.681-9.792 3.681L-8.752 7.774C-9.068 8.983-10.025 9.618-10.025 11.02-10.025 11.92-9.519 12.795-9.579 13.69-9.705 15.601-9.969 15.395-8.991 16.262-8.693 16.53-7.543 17-7.734 15.09-7.887 13.563-7.483 13.221-6.707 12.784-5.688 12.211-5.284 12.755-4.963 13.33-4.646 13.9-3.207 13.038-2.572 12.784-1.934 12.529-1.217 12.747-.068 12.747"/>
<path transform="matrix(1,0,0,-1,380.7037,78.89911)" d="M0 0C-1.333-.376-3.482-1.051-4.437-.669-5.39-.288-6.282-.099-6.47-1.18-6.663-2.258-6.535-3.726-5.2-3.596-3.862-3.467-2.21-3.193-1.738-4.24-.849-6.211-.747-7.41 .972-7.41Z" fill="#e6e7e8"/>
<path transform="matrix(1,0,0,-1,380.7037,78.89911)" stroke-width=".4" stroke-linecap="round" stroke-linejoin="round" fill="none" stroke="#6d6e71" d="M0 0C-1.333-.376-3.482-1.051-4.437-.669-5.39-.288-6.282-.099-6.47-1.18-6.663-2.258-6.535-3.726-5.2-3.596-3.862-3.467-2.21-3.193-1.738-4.24-.849-6.211-.747-7.41 .972-7.41L0 0Z"/>
<path transform="matrix(1,0,0,-1,387.1783,86.3479)" d="M0 0C-.701 .193-1.905 .704-2.23 2.121-2.384 2.788-4.08 2.121-4.08 .704-4.08-.069-4.113-.628-4.621-1.454-5.13-2.283-8.911-1.784-8.976 .382-9.038 2.542-8.559 3.812-8.43 5.275-8.303 6.737-8.32 6.573-8.32 7.884-8.32 8.16-8.268 8.974-8.213 9.845-8.074 12.086-4.29 13.416-4.514 10.933-4.64 9.531-4.514 9.518-4.35 9.03-4.105 8.283-3.643 8.486-2.665 8.16-2.665 8.16-1.525 7.998 0 8.048" fill="#e6e7e8"/>
<path transform="matrix(1,0,0,-1,387.1783,86.3479)" stroke-width=".4" stroke-linecap="round" stroke-linejoin="round" fill="none" stroke="#6d6e71" d="M0 0C-.701 .193-1.905 .704-2.23 2.121-2.384 2.788-4.08 2.121-4.08 .704-4.08-.069-4.113-.628-4.621-1.454-5.13-2.283-8.911-1.784-8.976 .382-9.038 2.542-8.559 3.812-8.43 5.275-8.303 6.737-8.32 6.573-8.32 7.884-8.32 8.16-8.268 8.974-8.213 9.845-8.074 12.086-4.29 13.416-4.514 10.933-4.64 9.531-4.514 9.518-4.35 9.03-4.105 8.283-3.643 8.486-2.665 8.16-2.665 8.16-1.525 7.998 0 8.048"/>
<path transform="matrix(1,0,0,-1,387.1783,85.64429)" d="M0 0C-.637 0-1.515 .615-1.579 2.273-1.643 3.924-1.205 4.938-1.144 6.531" fill="#e6e7e8"/>
<path transform="matrix(1,0,0,-1,387.1783,85.64429)" stroke-width=".4" stroke-linecap="round" stroke-linejoin="round" fill="none" stroke="#6d6e71" d="M0 0C-.637 0-1.515 .615-1.579 2.273-1.643 3.924-1.205 4.938-1.144 6.531"/>
<path transform="matrix(1,0,0,-1,386.0235,90.161808)" d="M0 0C.021-.658-.509-4.132-.592-4.965-.671-5.769-1.016-6.544-.655-7.23-.238-8.01-.432-8.92 1.038-8.92" fill="#e6e7e8"/>
<path transform="matrix(1,0,0,-1,386.0235,90.161808)" stroke-width=".4" stroke-linecap="round" stroke-linejoin="round" fill="none" stroke="#6d6e71" d="M0 0C.021-.658-.509-4.132-.592-4.965-.671-5.769-1.016-6.544-.655-7.23-.238-8.01-.432-8.92 1.038-8.92"/>
<path transform="matrix(1,0,0,-1,386.2159,143.63062)" d="M0 0C-.018 .27 .03 .461 .149 .407 .234 .368 .525 .374 .822 .37 1.119 .374 1.407 .368 1.493 .407 1.612 .461 1.66 .27 1.643 0 1.735-.438 1.879-1.269 1.688-1.269 1.454-1.269 1.489-1.384 .822-1.354 .155-1.384 .19-1.269-.045-1.269-.238-1.269-.091-.438 0 0" fill="#e6e7e8"/>
<path transform="matrix(1,0,0,-1,386.2159,143.63062)" stroke-width=".4" stroke-linecap="round" stroke-linejoin="round" fill="none" stroke="#6d6e71" d="M0 0C-.018 .27 .03 .461 .149 .407 .234 .368 .525 .374 .822 .37 1.119 .374 1.407 .368 1.493 .407 1.612 .461 1.66 .27 1.643 0 1.735-.438 1.879-1.269 1.688-1.269 1.454-1.269 1.489-1.384 .822-1.354 .155-1.384 .19-1.269-.045-1.269-.238-1.269-.091-.438 0 0Z"/>
<path transform="matrix(1,0,0,-1,385.7892,141.71802)" d="M0 0C.061-.021 .222-.021 .427-.011L.431 0C.451 .075 .826 .066 1.249 .041 1.671 .066 2.044 .075 2.066 0L2.068-.011C2.274-.021 2.436-.021 2.498 0 2.811 .112 2.545-1.506 2.065-1.758L1.983-1.789C1.942-1.886 1.893-1.949 1.828-1.967 1.656-2.003 1.458-2.011 1.249-1.99 1.041-2.011 .839-2.003 .671-1.967 .604-1.949 .552-1.886 .511-1.789L.433-1.758C-.049-1.506-.315 .112 0 0" fill="#e6e7e8"/>
<path transform="matrix(1,0,0,-1,385.7892,141.71802)" stroke-width=".4" stroke-linecap="round" stroke-linejoin="round" fill="none" stroke="#6d6e71" d="M0 0C.061-.021 .222-.021 .427-.011L.431 0C.451 .075 .826 .066 1.249 .041 1.671 .066 2.044 .075 2.066 0L2.068-.011C2.274-.021 2.436-.021 2.498 0 2.811 .112 2.545-1.506 2.065-1.758L1.983-1.789C1.942-1.886 1.893-1.949 1.828-1.967 1.656-2.003 1.458-2.011 1.249-1.99 1.041-2.011 .839-2.003 .671-1.967 .604-1.949 .552-1.886 .511-1.789L.433-1.758C-.049-1.506-.315 .112 0 0Z"/>
<path transform="matrix(1,0,0,-1,383.7232,139.20532)" d="M0 0C.282-.042 2.089 .037 2.929 .041 3.01 .112 3.157 .102 3.314 .077 3.469 .102 3.616 .112 3.7 .041 4.54 .037 6.345-.042 6.628 0 6.917 .041 7.35-.879 6.773-1.213 6.198-1.548 5.187-2.345 4.9-2.721 4.701-2.981 3.896-2.981 3.314-2.944 2.735-2.981 1.926-2.981 1.73-2.721 1.441-2.345 .431-1.548-.145-1.213-.721-.879-.288 .041 0 0" fill="#e6e7e8"/>
<path transform="matrix(1,0,0,-1,383.7232,139.20532)" stroke-width=".4" stroke-linecap="round" stroke-linejoin="round" fill="none" stroke="#6d6e71" d="M0 0C.282-.042 2.089 .037 2.929 .041 3.01 .112 3.157 .102 3.314 .077 3.469 .102 3.616 .112 3.7 .041 4.54 .037 6.345-.042 6.628 0 6.917 .041 7.35-.879 6.773-1.213 6.198-1.548 5.187-2.345 4.9-2.721 4.701-2.981 3.896-2.981 3.314-2.944 2.735-2.981 1.926-2.981 1.73-2.721 1.441-2.345 .431-1.548-.145-1.213-.721-.879-.288 .041 0 0Z"/>
<path transform="matrix(1,0,0,-1,380.8878,136.23609)" d="M0 0C.625 .125 2.307 0 2.307 .92 2.307 1.382 2.45 2.551 2.548 2.929 2.548 2.929 6.004 2.467 6.004 1.922 6.004 1.726 6.082 .972 6.15 .087 6.216 .972 6.294 1.726 6.294 1.922 6.294 2.467 9.752 2.929 9.752 2.929 9.847 2.551 9.993 1.382 9.993 .92 9.993 0 11.675 .125 12.298 0 12.922-.124 13.501-1.465 12.394-1.716 11.29-1.965 9.512-1.548 9.321-2.05 9.128-2.551 9.128-3.347 8.214-3.43 7.301-3.513 6.966-3.6 6.34-3.473 6.254-3.457 6.195-3.347 6.15-3.184 6.104-3.347 6.044-3.457 5.957-3.473 5.334-3.6 4.997-3.513 4.084-3.43 3.173-3.347 3.173-2.551 2.98-2.05 2.787-1.548 1.007-1.965-.098-1.716-1.202-1.465-.624-.124 0 0" fill="#e6e7e8"/>
<path transform="matrix(1,0,0,-1,380.8878,136.23609)" stroke-width=".4" stroke-linecap="round" stroke-linejoin="round" fill="none" stroke="#6d6e71" d="M0 0C.625 .125 2.307 0 2.307 .92 2.307 1.382 2.45 2.551 2.548 2.929 2.548 2.929 6.004 2.467 6.004 1.922 6.004 1.726 6.082 .972 6.15 .087 6.216 .972 6.294 1.726 6.294 1.922 6.294 2.467 9.752 2.929 9.752 2.929 9.847 2.551 9.993 1.382 9.993 .92 9.993 0 11.675 .125 12.298 0 12.922-.124 13.501-1.465 12.394-1.716 11.29-1.965 9.512-1.548 9.321-2.05 9.128-2.551 9.128-3.347 8.214-3.43 7.301-3.513 6.966-3.6 6.34-3.473 6.254-3.457 6.195-3.347 6.15-3.184 6.104-3.347 6.044-3.457 5.957-3.473 5.334-3.6 4.997-3.513 4.084-3.43 3.173-3.347 3.173-2.551 2.98-2.05 2.787-1.548 1.007-1.965-.098-1.716-1.202-1.465-.624-.124 0 0Z"/>
<path transform="matrix(1,0,0,-1,368.1422,109.804019)" d="M0 0C.336 1.606 2.679 11.356 2.679 11.356 3.111 11.407 7.11 9.234 7.495 8.68 7.88 8.129 9.224 7.174 9.609 7.276 9.993 7.375 10.331 8.578 11.05 9.234 11.77 9.884 12.875 11.541 13.836 11.039 14.798 10.535 14.895 9.331 14.942 8.279 14.99 7.225 15.483 3.362 18.605 3.21 18.823 3.201 19.606 3.249 19.856 3.26 22.978 3.413 23.123 7.225 23.169 8.279 23.217 9.331 23.316 10.535 24.275 11.039 25.237 11.541 26.341 9.884 27.062 9.234 27.781 8.578 28.121 7.375 28.502 7.276 28.889 7.174 30.232 8.129 30.617 8.68 31.002 9.234 35.002 11.407 35.436 11.356 35.436 11.356 37.777 1.606 38.113 0 38.448-1.606 37.777-8.178 36.959-8.881 36.143-9.583 34.604-12.194 34.316-12.695 33.619-13.908 32.685-17.161 31.05-18.964 30.041-20.084 25.958-21.625 24.324-22.376 22.689-23.132 21.536-25.391 21.008-26.195 20.574-26.851 19.412-27.393 19.057-26.991 18.699-27.393 17.538-26.851 17.102-26.195 16.576-25.391 15.423-23.132 13.789-22.376 12.154-21.625 8.072-20.084 7.061-18.964 5.429-17.161 4.493-13.908 3.795-12.695 3.506-12.194 1.97-9.583 1.153-8.881 .336-8.178-.336-1.606 0 0" fill="#e6e7e8"/>
<path transform="matrix(1,0,0,-1,368.1422,109.804019)" stroke-width=".4" stroke-linecap="round" stroke-linejoin="round" fill="none" stroke="#6d6e71" d="M0 0C.336 1.606 2.679 11.356 2.679 11.356 3.111 11.407 7.11 9.234 7.495 8.68 7.88 8.129 9.224 7.174 9.609 7.276 9.993 7.375 10.331 8.578 11.05 9.234 11.77 9.884 12.875 11.541 13.836 11.039 14.798 10.535 14.895 9.331 14.942 8.279 14.99 7.225 15.483 3.362 18.605 3.21 18.823 3.201 19.606 3.249 19.856 3.26 22.978 3.413 23.123 7.225 23.169 8.279 23.217 9.331 23.316 10.535 24.275 11.039 25.237 11.541 26.341 9.884 27.062 9.234 27.781 8.578 28.121 7.375 28.502 7.276 28.889 7.174 30.232 8.129 30.617 8.68 31.002 9.234 35.002 11.407 35.436 11.356 35.436 11.356 37.777 1.606 38.113 0 38.448-1.606 37.777-8.178 36.959-8.881 36.143-9.583 34.604-12.194 34.316-12.695 33.619-13.908 32.685-17.161 31.05-18.964 30.041-20.084 25.958-21.625 24.324-22.376 22.689-23.132 21.536-25.391 21.008-26.195 20.574-26.851 19.412-27.393 19.057-26.991 18.699-27.393 17.538-26.851 17.102-26.195 16.576-25.391 15.423-23.132 13.789-22.376 12.154-21.625 8.072-20.084 7.061-18.964 5.429-17.161 4.493-13.908 3.795-12.695 3.506-12.194 1.97-9.583 1.153-8.881 .336-8.178-.336-1.606 0 0Z"/>
<path transform="matrix(1,0,0,-1,397.7027,109.301029)" stroke-width=".4" stroke-linecap="round" stroke-linejoin="round" fill="none" stroke="#6d6e71" d="M0 0C-.127 .262-.77-.653-1.106-.806-1.439-.954-1.826-1.105-1.921-1.307-2.018-1.506-1.394-2.011-.961-2.059-.527-2.109 .143-1.656 .143-1.105 .143-.555 .143-.303 0 0Z"/>
<path transform="matrix(1,0,0,-1,397.9029,115.72583)" stroke-width=".4" stroke-linecap="round" stroke-linejoin="round" fill="none" stroke="#6d6e71" d="M0 0C-.23 .409-1.298 .452-1.636 .201-1.971-.048-2.933-1.103-2.451-1.554-1.971-2.005-1.013-2.157-.579-1.754-.146-1.354 .333-.602 0 0Z"/>
<path transform="matrix(1,0,0,-1,397.1236,121.9978)" stroke-width=".4" stroke-linecap="round" stroke-linejoin="round" fill="none" stroke="#6d6e71" d="M0 0C-.19 .451-1.009 .553-1.537 .351-2.064 .152-2.689-.853-2.593-1.402-2.498-1.957-1.921-2.458-1.391-2.407-.864-2.356-.287-2.107-.047-1.402"/>
<path transform="matrix(1,0,0,-1,395.857,127.11548)" stroke-width=".4" stroke-linecap="round" stroke-linejoin="round" fill="none" stroke="#6d6e71" d="M0 0C-.045 .403-.911 .6-1.297 .251-1.681-.098-2.111-1.004-1.776-1.255-1.438-1.504 .146-1.305 0 0Z"/>
<path transform="matrix(1,0,0,-1,387.3087,104.486087)" d="M0 0C.334-.033 .912-.251 .912-.752 .912-1.253 .625-2.709 .579-3.06 .527-3.411 .818-4.466 .625-4.869 .434-5.268-.816-5.571-.864-4.616-.911-3.662-.768-3.712-.719-3.06-.672-2.409-.961-1.155-.961-.7-.961-.251-.479 .052 0 0" fill="#e6e7e8"/>
<path transform="matrix(1,0,0,-1,387.3087,104.486087)" stroke-width=".4" stroke-linecap="round" stroke-linejoin="round" fill="none" stroke="#6d6e71" d="M0 0C.334-.033 .912-.251 .912-.752 .912-1.253 .625-2.709 .579-3.06 .527-3.411 .818-4.466 .625-4.869 .434-5.268-.816-5.571-.864-4.616-.911-3.662-.768-3.712-.719-3.06-.672-2.409-.961-1.155-.961-.7-.961-.251-.479 .052 0 0Z"/>
<path transform="matrix(1,0,0,-1,387.1158,112.26251)" stroke-width=".4" stroke-linecap="round" stroke-linejoin="round" fill="none" stroke="#6d6e71" d="M0 0C.384-.044 .915-.303 .915-1.003 .915-1.705 .675-2.408 .72-2.81 .772-3.212 1.153-4.665 .675-5.218 .193-5.769 .145-5.669-.144-5.571-.432-5.468-1.105-5.32-1.008-4.417-.912-3.511-.526-3.212-.575-2.759-.623-2.31-.912-1.105-.863-.654-.816-.201-.432 .05 0 0Z"/>
<path transform="matrix(1,0,0,-1,386.9063,120.289798)" stroke-width=".4" stroke-linecap="round" stroke-linejoin="round" fill="none" stroke="#6d6e71" d="M0 0C.483-.05 1.202-.505 1.108-1.104 1.011-1.708 .771-3.062 0-3.062-.765-3.062-.958-1.708-.958-1.004-.958-.303-.479 .048 0 0Z"/>
<path transform="matrix(1,0,0,-1,387.836,109.7038)" stroke-width=".4" stroke-linecap="round" stroke-linejoin="round" fill="none" stroke="#6d6e71" d="M0 0C-.286-.353-.286-2.107-.143-2.661"/>
<path transform="matrix(1,0,0,-1,386.5895,109.50513)" stroke-width=".4" stroke-linecap="round" stroke-linejoin="round" fill="none" stroke="#6d6e71" d="M0 0C.094-.449 .241-2.056 .094-2.607"/>
<path transform="matrix(1,0,0,-1,387.4068,117.882999)" stroke-width=".4" stroke-linecap="round" stroke-linejoin="round" fill="none" stroke="#6d6e71" d="M0 0C-.146-.351-.162-2.071-.02-2.524"/>
<path transform="matrix(1,0,0,-1,386.3976,117.53241)" stroke-width=".4" stroke-linecap="round" stroke-linejoin="round" fill="none" stroke="#6d6e71" d="M0 0C.047-.25 .239-2.41 0-2.807"/>
<path transform="matrix(1,0,0,-1,396.6441,102.528079)" stroke-width=".4" stroke-linecap="round" stroke-linejoin="round" fill="none" stroke="#6d6e71" d="M0 0C-.479-.051-1.248-1.758-.381-2.86"/>
<path transform="matrix(1,0,0,-1,376.6949,109.301029)" stroke-width=".4" stroke-linecap="round" stroke-linejoin="round" fill="none" stroke="#6d6e71" d="M0 0C.124 .262 .767-.653 1.103-.806 1.44-.954 1.826-1.105 1.922-1.307 2.017-1.506 1.391-2.011 .962-2.059 .526-2.109-.145-1.656-.145-1.105-.145-.555-.145-.303 0 0Z"/>
<path transform="matrix(1,0,0,-1,376.4962,115.72583)" stroke-width=".4" stroke-linecap="round" stroke-linejoin="round" fill="none" stroke="#6d6e71" d="M0 0C.226 .409 1.296 .452 1.631 .201 1.969-.048 2.931-1.103 2.449-1.554 1.969-2.005 1.006-2.157 .577-1.754 .141-1.354-.337-.602 0 0Z"/>
<path transform="matrix(1,0,0,-1,377.2706,121.9978)" stroke-width=".4" stroke-linecap="round" stroke-linejoin="round" fill="none" stroke="#6d6e71" d="M0 0C.192 .451 1.009 .553 1.541 .351 2.067 .152 2.689-.853 2.596-1.402 2.5-1.957 1.922-2.458 1.395-2.407 .866-2.356 .289-2.107 .05-1.402"/>
<path transform="matrix(1,0,0,-1,378.5362,127.11548)" stroke-width=".4" stroke-linecap="round" stroke-linejoin="round" fill="none" stroke="#6d6e71" d="M0 0C.046 .403 .912 .6 1.298 .251 1.683-.098 2.115-1.004 1.778-1.255 1.443-1.504-.142-1.305 0 0Z"/>
<path transform="matrix(1,0,0,-1,377.7516,102.528079)" stroke-width=".4" stroke-linecap="round" stroke-linejoin="round" fill="none" stroke="#6d6e71" d="M0 0C.479-.051 1.25-1.758 .384-2.86"/>
<path transform="matrix(1,0,0,-1,381.5113,130.87921)" stroke-width=".4" stroke-linecap="round" stroke-linejoin="round" fill="none" stroke="#6d6e71" d="M0 0C.145 .052 1.008 .152 1.297-.201 1.585-.549 1.73-.953 2.546-1.153 3.362-1.354 3.843-1.301 4.082-.953 4.323-.602 4.082 4.363 4.082 5.169 4.082 5.972 4.9 6.375 5.19 6.375H5.86C6.149 6.375 6.966 5.972 6.966 5.169 6.966 4.363 6.729-.602 6.966-.953 7.208-1.301 7.688-1.354 8.504-1.153 9.32-.953 9.464-.549 9.754-.201 10.04 .152 10.906 .052 11.051 0"/>
<path transform="matrix(1,0,0,-1,400.0709,146.74982)" d="M0 0C.482 .557 3.384 1.874 4.89 2.368 5.87 2.689 8.547 3.096 9.601 3.315 11.575 3.727 12.81 2.739 12.562 1.094 12.465 .448 12.431-2.566 11.739-6.31 11.163-9.436 10.656-12.411 9.683-12.645 8.944-12.822 8.366-12.892 7.462-12.974 5.894-13.117 2.879-7.273 1.784-5.734 1.311-5.067-.452-4.78-1.259-4.747-2.569-4.693-3.157-4.406-3.562-3.43-3.862-2.698-3.826-2.256-3.892-1.95-3.964-1.639-.375-.432 0 0M-12.53 .924C-12.53 .266-12.447-2.975-12.447-3.595-12.447-4.829-9.755-4.857-8.498-5.158-6.443-5.652-4.457-11.128-1.917-12.233-.211-12.972 1.483-16.363 5.733-17.91 6.702-18.262 12.461-17.202 13.632-16.552 14.372-16.141 15.524-9.517 15.936-8.285 16.347-7.05 18.485-1.456 18.63 .547 18.63 .547 18.429 .976 18.897 1.176 19.473 1.423 20.56 1.525 21.565 2.431 22.396 3.177 29.073 9.669 31.262 11.272 33.448 12.874 33.659 15.716 33.659 16.952 33.659 18.179 30.632 21.379 30.222 21.744 29.811 22.116 31.134 23.75 31.271 24.12 31.406 24.489 32.228 24.489 33.185 25.108 34.144 25.725 33.866 27.694 34.279 28.927 34.685 30.161 34.939 29.604 35.897 30.222 36.771 29.679 36.465 27.028 37.978 26.861 43.014 26.303 43.597 31.578 43.812 32.299 44.399 34.28 45.343 36.948 45.894 38.054 46.438 39.167 45.35 46.215 44.854 47.169 43.396 49.963 40.708 56.666 36.693 59.532 34.049 61.423 24.705 63.655 22.749 63.726 20.38 63.809 14.046 61.097 12.13 60.111 10.218 59.122 7.62 55.057 6.801 54.194 5.982 53.33 2.976 52.714 2.837 51.481 2.7 50.25 1.989 49.009 2.26 47.653 2.26 47.653 3.526 44.248 3.701 43.655 4.497 40.935 3.366 36.593 4.179 35.818 6.991 33.137 4.272 30.76 4.771 29.065 5.388 26.967 6.868 25.24 9.457 26.225 10.226 26.517 12.489 26.176 12.543 24.611 12.815 16.791 7.218 13.277 3.153 8.017-.28 3.567-4.22 2.791-6.607 2.117-9.461 1.311-12.53 1.911-12.53 .924" fill="#e6e7e8"/>
<path transform="matrix(1,0,0,-1,400.0709,146.74982)" stroke-width=".4" stroke-linecap="round" stroke-linejoin="round" fill="none" stroke="#6d6e71" d="M0 0C.482 .557 3.384 1.874 4.89 2.368 5.87 2.689 8.547 3.096 9.601 3.315 11.575 3.727 12.81 2.739 12.562 1.094 12.465 .448 12.431-2.566 11.739-6.31 11.163-9.436 10.656-12.411 9.683-12.645 8.944-12.822 8.366-12.892 7.462-12.974 5.894-13.117 2.879-7.273 1.784-5.734 1.311-5.067-.452-4.78-1.259-4.747-2.569-4.693-3.157-4.406-3.562-3.43-3.862-2.698-3.826-2.256-3.892-1.95-3.964-1.639-.375-.432 0 0ZM-12.53 .924C-12.53 .266-12.447-2.975-12.447-3.595-12.447-4.829-9.755-4.857-8.498-5.158-6.443-5.652-4.457-11.128-1.917-12.233-.211-12.972 1.483-16.363 5.733-17.91 6.702-18.262 12.461-17.202 13.632-16.552 14.372-16.141 15.524-9.517 15.936-8.285 16.347-7.05 18.485-1.456 18.63 .547 18.63 .547 18.429 .976 18.897 1.176 19.473 1.423 20.56 1.525 21.565 2.431 22.396 3.177 29.073 9.669 31.262 11.272 33.448 12.874 33.659 15.716 33.659 16.952 33.659 18.179 30.632 21.379 30.222 21.744 29.811 22.116 31.134 23.75 31.271 24.12 31.406 24.489 32.228 24.489 33.185 25.108 34.144 25.725 33.866 27.694 34.279 28.927 34.685 30.161 34.939 29.604 35.897 30.222 36.771 29.679 36.465 27.028 37.978 26.861 43.014 26.303 43.597 31.578 43.812 32.299 44.399 34.28 45.343 36.948 45.894 38.054 46.438 39.167 45.35 46.215 44.854 47.169 43.396 49.963 40.708 56.666 36.693 59.532 34.049 61.423 24.705 63.655 22.749 63.726 20.38 63.809 14.046 61.097 12.13 60.111 10.218 59.122 7.62 55.057 6.801 54.194 5.982 53.33 2.976 52.714 2.837 51.481 2.7 50.25 1.989 49.009 2.26 47.653 2.26 47.653 3.526 44.248 3.701 43.655 4.497 40.935 3.366 36.593 4.179 35.818 6.991 33.137 4.272 30.76 4.771 29.065 5.388 26.967 6.868 25.24 9.457 26.225 10.226 26.517 12.489 26.176 12.543 24.611 12.815 16.791 7.218 13.277 3.153 8.017-.28 3.567-4.22 2.791-6.607 2.117-9.461 1.311-12.53 1.911-12.53 .924Z"/>
<path transform="matrix(1,0,0,-1,404.2496,110.931888)" stroke-width=".4" stroke-linecap="round" stroke-linejoin="round" fill="none" stroke="#6d6e71" d="M0 0C.344-.297 2.15-1.407 2.542-2.885"/>
<path transform="matrix(1,0,0,-1,433.4469,88.8078)" stroke-width=".4" stroke-linecap="round" stroke-linejoin="round" fill="none" stroke="#6d6e71" d="M0 0C-.991 .777-7.732 2.334-11.188 2.139-14.645 1.946-17.84 .261-19.814-1.87-21.787-3.999-22.678-4.875-23.371-5.551-24.059-6.229-26.403-9.756-25.396-12.622-24.452-15.287-22.922-22.212-23.117-23.776-23.447-26.408-24.233-27.641-25.268-27.641-26.83-27.641-27.232-25.75-28.137-23.529"/>
<path transform="matrix(1,0,0,-1,439.3941,115.83368)" stroke-width=".4" stroke-linecap="round" stroke-linejoin="round" fill="none" stroke="#6d6e71" d="M0 0C-1.234 0-2.468-.37-3.426-.694"/>
<path transform="matrix(1,0,0,-1,411.607,127.8772)" stroke-width=".4" stroke-linecap="round" stroke-linejoin="round" fill="none" stroke="#6d6e71" d="M0 0C0-1.452-1.646-4.998-3.129-6.45-4.609-7.901-6.73-9.693-5.642-10.663-4.557-11.63-1.397-12.213-.559-14.052"/>
<path transform="matrix(1,0,0,-1,409.5279,120.525089)" stroke-width=".4" stroke-linecap="round" stroke-linejoin="round" fill="none" stroke="#6d6e71" d="M0 0C.54 .298 1.278 1.283 2.876 1.598"/>
<path transform="matrix(1,0,0,-1,437.983,93.443119)" stroke-width=".4" stroke-linecap="round" stroke-linejoin="round" fill="none" stroke="#6d6e71" d="M0 0C.422-.417 2.115-2.258 2.222-4.769"/>
<path transform="matrix(1,0,0,-1,422.484,181.47241)" stroke-width=".4" stroke-linecap="round" stroke-linejoin="round" fill="none" stroke="#6d6e71" d="M0 0C-.181-.305 .027-1.534 .039-1.867 .084-2.935 .334-3.924 .329-4.994 .294-9.038-.388-12.919-.822-16.88"/>
<path transform="matrix(1,0,0,-1,424.6764,204.90009)" stroke-width=".4" stroke-linecap="round" stroke-linejoin="round" fill="none" stroke="#6d6e71" d="M0 0C-.313 .565-.409 1.203-.236 1.841-.141 2.188 .196 2.628 .491 2.348 .977 1.895 .386 1.205 .432 .593"/>
<path transform="matrix(1,0,0,-1,422.8531,212.32788)" stroke-width=".4" stroke-linecap="round" stroke-linejoin="round" fill="none" stroke="#6d6e71" d="M0 0C-.561-5.922-1.56-11.773-2.373-17.666-3.099-22.901-3.894-28.127-3.962-33.415L-4.053-33.401"/>
<path transform="matrix(1,0,0,-1,424.7311,212.62769)" stroke-width=".4" stroke-linecap="round" stroke-linejoin="round" fill="none" stroke="#6d6e71" d="M0 0C-.248-1.619-.585-3.188-.986-4.804-1.056-5.065-1.263-5.274-1.287-5.495-1.96-10.464-2.737-15.378-2.871-20.427-2.954-23.41-3.175-26.326-3.272-29.304-3.314-30.555-3.841-31.72-4.005-32.953"/>
<path transform="matrix(1,0,0,-1,416.734,261.1682)" stroke-width=".4" stroke-linecap="round" stroke-linejoin="round" fill="none" stroke="#6d6e71" d="M0 0C-.367-1.438-.474-2.893-.88-4.355-1.119-5.207-1.436-5.98-1.688-6.828-2.659-10.074-3.464-12.883-4.755-15.992-5.073-16.766-5.601-17.393-6.032-18.092"/>
<path transform="matrix(1,0,0,-1,421.2096,262.6643)" stroke-width=".4" stroke-linecap="round" stroke-linejoin="round" fill="none" stroke="#6d6e71" d="M0 0C-.124-2.664-.808-5.318-1.028-7.99-1.041-8.18-.947-8.363-.96-8.553-.977-8.949-1.112-9.316-1.096-9.717-1.084-10.244-.952-10.736-.874-11.236-.764-11.955-.764-12.672-.729-13.424-.671-14.535-.281-15.533-.262-16.619"/>
<path transform="matrix(1,0,0,-1,425.6881,300.2385)" stroke-width=".4" stroke-linecap="round" stroke-linejoin="round" fill="none" stroke="#6d6e71" d="M0 0C-.167 1.025-1.163 1.596-1.529 2.492-2.002 3.658-2.286 4.848-2.962 5.926-3.532 6.844-4.305 7.549-5.271 8.018"/>
<path transform="matrix(1,0,0,-1,403.1803,291.2854)" stroke-width=".4" stroke-linecap="round" stroke-linejoin="round" fill="none" stroke="#6d6e71" d="M0 0C1.748 .693 4.165-.117 4.399-2.148 4.544-3.412 3.894-4.594 4.165-5.844 4.316-6.543 4.27-7.25 4.589-7.904 4.909-8.553 5.119-9.207 5.771-9.549 6.001-9.668 6.292-9.662 6.559-9.701"/>
<path transform="matrix(1,0,0,-1,419.2408,337.8205)" d="M0 0C.223 3.508 .407 6.252 .509 7.502 .923 12.697 1.354 15.695 2.274 17.039 3.196 18.377 3.771 19.262 3.798 19.984 3.824 20.709 3.861 25.197 3.986 26.496 4.106 27.795 2.004 28.758 .992 28.871-1.82 29.197-4.25 27.375-4.474 25.354-4.699 23.336-5.283 19.225-4.187 17.039-3.347 15.355-4.071 8.98-3.912 7.521-3.823 6.719-4.18 3.525-4.572 .342" fill="#e6e7e8"/>
<path transform="matrix(1,0,0,-1,419.2408,337.8205)" stroke-width=".4" stroke-linecap="round" stroke-linejoin="round" fill="none" stroke="#6d6e71" d="M0 0C.223 3.508 .407 6.252 .509 7.502 .923 12.697 1.354 15.695 2.274 17.039 3.196 18.377 3.771 19.262 3.798 19.984 3.824 20.709 3.861 25.197 3.986 26.496 4.106 27.795 2.004 28.758 .992 28.871-1.82 29.197-4.25 27.375-4.474 25.354-4.699 23.336-5.283 19.225-4.187 17.039-3.347 15.355-4.071 8.98-3.912 7.521-3.823 6.719-4.18 3.525-4.572 .342"/>
<path transform="matrix(1,0,0,-1,421.6744,164.48218)" stroke-width=".4" stroke-linecap="round" stroke-linejoin="round" fill="none" stroke="#6d6e71" d="M0 0C.498-.699 .871-1.488 1.146-2.275 1.576-3.469 1.3-4.796 1.445-6.065"/>
<path transform="matrix(1,0,0,-1,434.1725,140.49011)" stroke-width=".4" stroke-linecap="round" stroke-linejoin="round" fill="none" stroke="#6d6e71" d="M0 0C-.511-1.131-1.009-2.371-2.382-2.646"/>
<path transform="matrix(1,0,0,-1,420.7008,154.8855)" stroke-width=".4" stroke-linecap="round" stroke-linejoin="round" fill="none" stroke="#6d6e71" d="M0 0C.486 .209 .785 .645 1.187 .974 1.545 1.268 1.971 1.424 2.364 1.496 2.966 1.616 3.485 1.844 4.027 2.048 4.493 2.22 4.854 2.629 5.032 3.093 5.12 3.311 5.15 3.513 5.32 3.688"/>
<path transform="matrix(1,0,0,-1,433.2799,164.18042)" stroke-width=".4" stroke-linecap="round" stroke-linejoin="round" fill="none" stroke="#6d6e71" d="M0 0C-.02-.669-.1-1.364-.371-1.939-1.708-4.749-1.02-21.33-1.929-24.315-2.09-24.836-2.36-25.307-2.591-25.798"/>

</g>
<g clip-path="url(#clip_21)">

</g>
<g clip-path="url(#clip_22)">

</g>
<g clip-path="url(#clip_23)">

</g>
<g clip-path="url(#clip_24)">
<path transform="matrix(1,0,0,-1,423.1178,313.8293)" d="M0 0C.026 1.042 .062 2.008 .109 2.505 .175 3.211-.421 3.812-1.138 4.236-1.065 4.059-.999 3.892-.926 3.709-.609 2.92-.185 1.661 0 0" fill="#e6d2c9"/>
<path transform="matrix(1,0,0,-1,423.1178,313.8293)" stroke-width=".4" stroke-linecap="butt" stroke-miterlimit="4" stroke-linejoin="miter" fill="none" stroke="#a79a95" d="M0 0C.026 1.042 .062 2.008 .109 2.505 .175 3.211-.421 3.812-1.138 4.236-1.065 4.059-.999 3.892-.926 3.709-.609 2.92-.185 1.661 0 0Z"/>
<path transform="matrix(1,0,0,-1,400.6754,310.7033)" d="M0 0C-.502-1.463-.653-2.232-1.46-4.775-2.23-7.209-1.856-8.303-1.541-9.557-1.116-11.24-.894-12.393-.165-11.82 .674-9.786 4.67 1.038 7.021 7.583H1.249C.943 4.318 .532 1.563 0 0" fill="#fef1eb"/>
</g>
<g clip-path="url(#clip_25)">

</g>
<g clip-path="url(#clip_26)">
<path transform="matrix(1,0,0,-1,405.1324,306.4631)" d="M0 0C-.677-.186-2.426-.199-3.607-.24-3.857-1.906-4.151-3.332-4.457-4.24-4.937-5.637-5.104-6.42-5.816-8.691-5.041-10.068-4.443-12.797-4.102-14.379-4.078-14.482-4.067-14.607-4.047-14.725-2.659-11.539-.786-4.74 1.643 .844 .633 .596 .633 .176 0 0" fill="#e6d2c9"/>
<path transform="matrix(1,0,0,-1,405.1324,306.4631)" stroke-width=".4" stroke-linecap="butt" stroke-miterlimit="4" stroke-linejoin="miter" fill="none" stroke="#a79a95" d="M0 0C-.677-.186-2.426-.199-3.607-.24-3.857-1.906-4.151-3.332-4.457-4.24-4.937-5.637-5.104-6.42-5.816-8.691-5.041-10.068-4.443-12.797-4.102-14.379-4.078-14.482-4.067-14.607-4.047-14.725-2.659-11.539-.786-4.74 1.643 .844 .633 .596 .633 .176 0 0Z"/>


</g>
<g clip-path="url(#clip_27)">

</g>
<g clip-path="url(#clip_28)">

</g>
<g clip-path="url(#clip_29)">

</g>
<g clip-path="url(#clip_30)">

</g>
<g clip-path="url(#clip_31)">

</g>
<g clip-path="url(#clip_32)">
<path transform="matrix(1,0,0,-1,411.5377,279.2141)" stroke-width=".4" stroke-linecap="butt" stroke-miterlimit="4" stroke-linejoin="miter" fill="none" stroke="#a79a95" d="M0 0C-1.019-4.614-1.919-8.605-2.429-11.155-3.097-14.495-4.267-20.03-5.918-25.854-5.727-25.783-5.403-25.688-4.513-25.489-3.263-22.239-2.43-19.96-2.179-19.155-1.913-18.303 2.19-5.964 2.922-.917"/>
<path transform="matrix(1,0,0,-1,402.692,289.8694)" d="M0 0C-.417-6.75-.5-11.417-.979-16.245-.388-16.262 .197-16.162 .722-16.024 2.193-9.225 3.028-1.569 3.493 5.201 2.596 3.276 1.439 1.297 0 0" fill="#e6d2c9"/>
<path transform="matrix(1,0,0,-1,402.692,289.8694)" stroke-width=".4" stroke-linecap="butt" stroke-miterlimit="4" stroke-linejoin="miter" fill="none" stroke="#a79a95" d="M0 0C-.417-6.75-.5-11.417-.979-16.245-.388-16.262 .197-16.162 .722-16.024 2.193-9.225 3.028-1.569 3.493 5.201 2.596 3.276 1.439 1.297 0 0Z"/>
</g>
<g clip-path="url(#clip_33)">

</g>
<g clip-path="url(#clip_34)">
<path transform="matrix(1,0,0,-1,406.0279,286.7824)" stroke-width=".4" stroke-linecap="butt" stroke-miterlimit="4" stroke-linejoin="miter" fill="none" stroke="#a79a95" d="M0 0C-.488-6.223-1.294-13.009-2.614-19.111-1.687-18.868-.955-18.503-.759-18.427-.612-18.375-.542-18.336-.408-18.286 1.243-12.462 2.413-6.927 3.081-3.587 3.227-2.859 3.405-2.01 3.607-1.067"/>
</g>
<g clip-path="url(#clip_35)">

</g>
<g clip-path="url(#clip_36)">


<path transform="matrix(1,0,0,-1,415.4322,155.50513)" d="M0 0C-1.08-1.079-1.99-3.114-3.823-5.281-4.215-5.745-6.991-7.971-7.782-7.656L-8.106-8.307C-8.106-8.307-8.128-8.626-8.166-9.184-6.084-9.006-2.61-8.286-1.729-7.797-.989-7.386 .163-.761 .574 .471 .774 1.071 1.382 2.703 1.971 4.45 1.841 4.676 1.714 4.894 1.593 5.094 1.495 4.692 .439 .438 0 0" fill="#e6d2c9"/>
<path transform="matrix(1,0,0,-1,407.65,163.16138)" stroke-width=".4" stroke-linecap="butt" stroke-miterlimit="4" stroke-linejoin="miter" fill="none" stroke="#a79a95" d="M0 0-.324-.65C-.324-.65-.346-.97-.384-1.527 1.698-1.35 5.172-.629 6.053-.141 6.793 .271 7.945 6.895 8.356 8.127 8.557 8.727 9.164 10.359 9.753 12.106 9.623 12.332 9.496 12.55 9.375 12.75"/>


<path transform="matrix(1,0,0,-1,424.8932,298.8186)" stroke-width=".4" stroke-linecap="butt" stroke-miterlimit="4" stroke-linejoin="miter" fill="none" stroke="#a79a95" d="M0 0C-.284 .338-.572 .672-.734 1.072-1.207 2.238-1.491 3.428-2.167 4.506-2.737 5.424-3.51 6.129-4.477 6.598"/>





<path transform="matrix(1,0,0,-1,402.942,291.2033)" stroke-width=".4" stroke-linecap="butt" stroke-miterlimit="4" stroke-linejoin="miter" fill="none" stroke="#a79a95" d="M0 0C1.729 .568 4.412-.27 4.638-2.23 4.782-3.494 4.132-4.676 4.403-5.926 4.451-6.146 4.479-6.368 4.506-6.589"/>








<path transform="matrix(1,0,0,-1,387.1871,138.4602)" stroke-width=".5" stroke-linecap="round" stroke-linejoin="round" fill="none" stroke="#6d6e71" d="M0 0C0-8.951 .187-13.691 .692-16.844"/>
<path transform="matrix(1,0,0,-1,387.1871,138.4602)" stroke-width=".5" stroke-linecap="round" stroke-linejoin="round" fill="none" stroke="#6d6e71" d="M0 0C0-16.472-.632-18.685-2.722-22.987-4.318-26.275-6.064-28.934-7.891-30.301-10.166-32.009-15.563-37.127-32.342-36.345-32.342-36.345-40.394-35.703-41.574-35.504-45.518-34.841-52.168-31.804-57.808-23.552-58.662-22.301-60.672-19.118-61.51-16.856"/>
















</g>














<g clip-path="url(#clip_37)">





































































</g>




























































































































<g transform="matrix(.905413,0,0,.92282447,132.13123,386.875)">

</g>



</svg>